<?xml version="1.0" encoding="UTF-8" standalone="no"?>
<!-- Created with Inkscape (http://www.inkscape.org/) -->

<svg
   xmlns:dc="http://purl.org/dc/elements/1.1/"
   xmlns:cc="http://creativecommons.org/ns#"
   xmlns:rdf="http://www.w3.org/1999/02/22-rdf-syntax-ns#"
   xmlns:svg="http://www.w3.org/2000/svg"
   xmlns="http://www.w3.org/2000/svg"
   xmlns:sodipodi="http://sodipodi.sourceforge.net/DTD/sodipodi-0.dtd"
   xmlns:inkscape="http://www.inkscape.org/namespaces/inkscape"
   width="902.12244"
   height="581.24988"
   viewBox="0 0 238.68655 153.78903"
   version="1.1"
   id="svg160"
   inkscape:version="0.92.3 (unknown)"
   sodipodi:docname="dailyspoonielogo.svg">
  <defs
     id="defs154">
    <clipPath
       clipPathUnits="userSpaceOnUse"
       id="clipPath20">
      <path
         d="M 0,841.89 H 912.119 V 0 H 0 Z"
         id="path18"
         inkscape:connector-curvature="0" />
    </clipPath>
  </defs>
  <sodipodi:namedview
     id="base"
     pagecolor="#ffffff"
     bordercolor="#666666"
     borderopacity="1.0"
     inkscape:pageopacity="0.0"
     inkscape:pageshadow="2"
     inkscape:zoom="0.7"
     inkscape:cx="326.76969"
     inkscape:cy="324.85579"
     inkscape:document-units="mm"
     inkscape:current-layer="layer1"
     showgrid="false"
     inkscape:window-width="1366"
     inkscape:window-height="711"
     inkscape:window-x="0"
     inkscape:window-y="0"
     inkscape:window-maximized="1"
     units="px"
     fit-margin-top="0"
     fit-margin-left="0"
     fit-margin-right="0"
     fit-margin-bottom="-2" />
  <metadata
     id="metadata157">
    <rdf:RDF>
      <cc:Work
         rdf:about="">
        <dc:format>image/svg+xml</dc:format>
        <dc:type
           rdf:resource="http://purl.org/dc/dcmitype/StillImage" />
        <dc:title></dc:title>
      </cc:Work>
    </rdf:RDF>
  </metadata>
  <g
     inkscape:label="Layer 1"
     inkscape:groupmode="layer"
     id="layer1"
     transform="translate(3.6825623,-42.456678)">
    <g
       transform="matrix(0.28687236,0,0,-0.28687236,-13.652083,254.41802)"
       id="g14">
      <g
         id="g16"
         clip-path="url(#clipPath20)">
        <g
           id="g22"
           transform="translate(420.8604,554.2361)">
          <path
             d="M 0,0 C 0,10.302 -8.171,18.472 -18.118,18.472 H -36.59 v -130.018 h 18.472 c 9.947,0 18.118,8.171 18.118,18.118 z m 22.735,0 v -93.428 c 0,-22.735 -18.118,-41.208 -40.853,-41.208 h -29.839 c -6.039,0 -11.369,5.328 -11.369,11.367 V 29.839 c 0,6.395 5.33,11.369 11.369,11.369 h 29.839 C 4.617,41.208 22.735,22.735 22.735,0"
             style="fill:#ffffff;fill-opacity:1;fill-rule:nonzero;stroke:none"
             id="path24"
             inkscape:connector-curvature="0" />
        </g>
        <g
           id="g26"
           transform="translate(532.4061,554.2361)">
          <path
             d="M 0,0 C 0,9.947 -8.171,18.117 -18.118,18.117 -28.419,18.117 -36.59,9.947 -36.59,0 V -35.524 H 0 Z m 22.735,0 v -128.952 c 0,-3.197 -2.486,-5.684 -5.684,-5.684 H 5.683 c -3.196,0 -5.683,2.487 -5.683,5.684 v 70.693 h -36.59 v -70.693 c 0,-3.197 -2.487,-5.684 -5.684,-5.684 h -11.367 c -3.198,0 -5.685,2.487 -5.685,5.684 V 0 c 0,22.379 18.473,40.852 41.208,40.852 C 4.263,40.852 22.735,22.379 22.735,0"
             style="fill:#ffffff;fill-opacity:1;fill-rule:nonzero;stroke:none"
             id="path28"
             inkscape:connector-curvature="0" />
        </g>
        <g
           id="g30"
           transform="translate(607.3616,425.2844)">
          <path
             d="m 0,0 c 0,-3.197 -2.487,-5.684 -5.684,-5.684 h -11.367 c -3.198,0 -5.684,2.487 -5.684,5.684 v 164.475 c 0,3.198 2.486,5.684 5.684,5.684 h 11.367 c 2.843,0 5.684,-2.486 5.684,-5.684 z"
             style="fill:#ffffff;fill-opacity:1;fill-rule:nonzero;stroke:none"
             id="path32"
             inkscape:connector-curvature="0" />
        </g>
        <g
           id="g34"
           transform="translate(695.8134,436.6514)">
          <path
             d="m 0,0 v -11.367 c 0,-2.843 -2.487,-5.684 -5.683,-5.684 h -41.918 c -6.395,0 -11.369,5.328 -11.369,11.367 v 158.792 c 0,3.198 2.487,5.684 5.685,5.684 h 11.367 c 2.842,0 5.684,-2.486 5.684,-5.684 V 5.684 H -5.683 C -2.487,5.684 0,3.197 0,0"
             style="fill:#ffffff;fill-opacity:1;fill-rule:nonzero;stroke:none"
             id="path36"
             inkscape:connector-curvature="0" />
        </g>
        <g
           id="g38"
           transform="translate(778.9411,589.7597)">
          <path
             d="m 0,0 v -52.22 c 0,-18.827 -12.432,-34.458 -29.485,-39.432 v -72.823 c 0,-2.843 -2.841,-5.684 -5.683,-5.684 h -11.368 c -3.197,0 -5.684,2.841 -5.684,5.684 v 72.823 c -17.406,4.974 -29.84,20.605 -29.84,39.432 V 0 c 0,3.197 2.487,5.684 5.685,5.684 h 11.367 c 3.197,0 5.684,-2.487 5.684,-5.684 v -52.22 c 0,-10.302 8.171,-18.473 18.472,-18.473 9.947,0 18.117,8.171 18.117,18.473 V 0 c 0,3.197 2.486,5.684 5.684,5.684 H -5.683 C -2.485,5.684 0,3.197 0,0"
             style="fill:#ffffff;fill-opacity:1;fill-rule:nonzero;stroke:none"
             id="path40"
             inkscape:connector-curvature="0" />
        </g>
        <g
           id="g42"
           transform="translate(240.5944,315.9419)">
          <path
             d="m 0,0 v 10.911 c 0,8.987 -7.381,16.368 -16.367,16.368 -8.987,0 -16.368,-7.381 -16.368,-16.368 0,-4.172 0,-4.172 0.963,-5.456 l 44.61,-59.052 c 7.702,-10.27 7.702,-10.27 7.702,-20.54 0,-20.219 -16.689,-36.908 -36.907,-36.908 -20.219,0 -36.908,16.689 -36.908,36.908 v 10.912 c 0,2.888 2.247,5.135 5.134,5.135 h 10.27 c 2.889,0 5.136,-2.247 5.136,-5.135 v -10.912 c 0,-8.987 7.381,-16.368 16.368,-16.368 8.986,0 16.367,7.381 16.367,16.368 0,4.172 0,4.172 -0.963,5.456 l -44.609,59.052 c -7.703,10.27 -7.703,10.27 -7.703,20.54 0,20.219 16.689,36.908 36.908,36.908 20.218,0 36.907,-16.689 36.907,-36.908 V 0 c 0,-2.889 -2.245,-5.136 -5.134,-5.136 H 5.136 C 2.247,-5.136 0,-2.889 0,0"
             style="fill:#ffffff;fill-opacity:1;fill-rule:nonzero;stroke:none"
             id="path44"
             inkscape:connector-curvature="0" />
        </g>
        <g
           id="g46"
           transform="translate(338.1586,326.8527)">
          <path
             d="m 0,0 c 0,8.987 -7.381,16.368 -16.367,16.368 h -16.688 v -48.461 h 16.688 c 8.986,0 16.367,7.381 16.367,16.689 z m 20.541,0 v -15.404 c 0,-20.54 -16.69,-37.229 -36.908,-37.229 h -16.688 v -64.187 c 0,-2.568 -2.247,-5.136 -5.136,-5.136 h -10.27 c -2.567,0 -5.134,2.568 -5.134,5.136 v 64.187 20.54 63.867 c 0,2.887 2.567,5.134 5.134,5.134 h 32.094 C 3.851,36.908 20.541,20.22 20.541,0"
             style="fill:#ffffff;fill-opacity:1;fill-rule:nonzero;stroke:none"
             id="path48"
             inkscape:connector-curvature="0" />
        </g>
        <g
           id="g50"
           transform="translate(432.1944,326.8527)">
          <path
             d="M 0,0 C 0,8.987 -7.382,16.368 -16.368,16.368 -25.676,16.368 -33.057,8.987 -33.057,0 v -84.727 c 0,-9.307 7.381,-16.689 16.689,-16.689 8.986,0 16.368,7.382 16.368,16.689 z m 20.54,0 v -84.727 c 0,-20.54 -16.69,-37.229 -36.908,-37.229 -20.54,0 -37.229,16.689 -37.229,37.229 V 0 c 0,20.22 16.689,36.908 37.229,36.908 C 3.85,36.908 20.54,20.22 20.54,0"
             style="fill:#ffffff;fill-opacity:1;fill-rule:nonzero;stroke:none"
             id="path52"
             inkscape:connector-curvature="0" />
        </g>
        <g
           id="g54"
           transform="translate(532.9666,326.8527)">
          <path
             d="M 0,0 C 0,8.987 -7.382,16.368 -16.368,16.368 -25.676,16.368 -33.057,8.987 -33.057,0 v -84.727 c 0,-9.307 7.381,-16.689 16.689,-16.689 8.986,0 16.368,7.382 16.368,16.689 z m 20.54,0 v -84.727 c 0,-20.54 -16.69,-37.229 -36.908,-37.229 -20.54,0 -37.229,16.689 -37.229,37.229 V 0 c 0,20.22 16.689,36.908 37.229,36.908 C 3.85,36.908 20.54,20.22 20.54,0"
             style="fill:#ffffff;fill-opacity:1;fill-rule:nonzero;stroke:none"
             id="path56"
             inkscape:connector-curvature="0" />
        </g>
        <g
           id="g58"
           transform="translate(654.2786,326.8527)">
          <path
             d="m 0,0 v -116.82 c 0,-2.568 -2.247,-5.136 -5.136,-5.136 h -10.27 c -2.888,0 -5.134,2.568 -5.134,5.136 V 0 c 0,8.987 -7.382,16.368 -16.368,16.368 -9.308,0 -16.689,-7.381 -16.689,-16.368 v -116.82 c 0,-2.568 -2.246,-5.136 -5.135,-5.136 h -10.27 c -2.888,0 -5.135,2.568 -5.135,5.136 V 0 c 0,20.22 16.689,36.908 37.229,36.908 C -16.69,36.908 0,20.22 0,0"
             style="fill:#ffffff;fill-opacity:1;fill-rule:nonzero;stroke:none"
             id="path60"
             inkscape:connector-curvature="0" />
        </g>
        <g
           id="g62"
           transform="translate(701.4541,210.0328)">
          <path
             d="m 0,0 c 0,-2.889 -2.247,-5.136 -5.136,-5.136 h -10.27 c -2.887,0 -5.134,2.247 -5.134,5.136 v 148.594 c 0,2.887 2.247,5.134 5.134,5.134 h 10.27 c 2.569,0 5.136,-2.247 5.136,-5.134 z"
             style="fill:#ffffff;fill-opacity:1;fill-rule:nonzero;stroke:none"
             id="path64"
             inkscape:connector-curvature="0" />
        </g>
        <g
           id="g66"
           transform="translate(748.6282,343.2208)">
          <path
             d="m 0,0 v -48.461 h 27.921 c 2.889,0 5.136,-2.247 5.136,-5.136 v -10.27 c 0,-2.887 -2.247,-5.134 -5.136,-5.134 H 0 v -48.783 h 27.921 c 2.889,0 5.136,-2.246 5.136,-5.135 v -10.269 c 0,-2.889 -2.247,-5.136 -5.136,-5.136 H -10.27 c -5.778,0 -10.27,4.814 -10.27,10.27 V 10.27 c 0,5.776 4.492,10.27 10.27,10.27 h 38.191 c 2.889,0 5.136,-2.247 5.136,-5.134 V 5.136 C 33.057,2.247 30.81,0 27.921,0 Z"
             style="fill:#ffffff;fill-opacity:1;fill-rule:nonzero;stroke:none"
             id="path68"
             inkscape:connector-curvature="0" />
        </g>
        <g
           id="g70"
           transform="translate(165.8824,630.433)">
          <path
             d="M 0,0 13.994,-28.907"
             style="fill:none;stroke:#fced7c;stroke-width:11;stroke-linecap:round;stroke-linejoin:round;stroke-miterlimit:10;stroke-dasharray:none;stroke-opacity:1"
             id="path72"
             inkscape:connector-curvature="0" />
        </g>
        <g
           id="g74"
           transform="translate(310.8356,580.0455)">
          <path
             d="M 0,0 -28.907,-13.994"
             style="fill:none;stroke:#fced7c;stroke-width:11;stroke-linecap:round;stroke-linejoin:round;stroke-miterlimit:10;stroke-dasharray:none;stroke-opacity:1"
             id="path76"
             inkscape:connector-curvature="0" />
        </g>
        <g
           id="g78"
           transform="translate(144.4018,499.4738)">
          <path
             d="M 0,0 -28.907,-13.994"
             style="fill:none;stroke:#fced7c;stroke-width:11;stroke-linecap:round;stroke-linejoin:round;stroke-miterlimit:10;stroke-dasharray:none;stroke-opacity:1"
             id="path80"
             inkscape:connector-curvature="0" />
        </g>
        <g
           id="g82"
           transform="translate(248.7945,635.2601)">
          <path
             d="M 0,0 -10.545,-30.336"
             style="fill:none;stroke:#fced7c;stroke-width:11;stroke-linecap:round;stroke-linejoin:round;stroke-miterlimit:10;stroke-dasharray:none;stroke-opacity:1"
             id="path84"
             inkscape:connector-curvature="0" />
        </g>
        <g
           id="g86"
           transform="translate(188.0809,460.6008)">
          <path
             d="M 0,0 -10.545,-30.336"
             style="fill:none;stroke:#fced7c;stroke-width:11;stroke-linecap:round;stroke-linejoin:round;stroke-miterlimit:10;stroke-dasharray:none;stroke-opacity:1"
             id="path88"
             inkscape:connector-curvature="0" />
        </g>
        <g
           id="g90"
           transform="translate(315.6627,497.1334)">
          <path
             d="M 0,0 -30.336,10.545"
             style="fill:none;stroke:#fced7c;stroke-width:11;stroke-linecap:round;stroke-linejoin:round;stroke-miterlimit:10;stroke-dasharray:none;stroke-opacity:1"
             id="path92"
             inkscape:connector-curvature="0" />
        </g>
        <g
           id="g94"
           transform="translate(141.0034,557.8469)">
          <path
             d="M 0,0 -30.336,10.545"
             style="fill:none;stroke:#fced7c;stroke-width:11;stroke-linecap:round;stroke-linejoin:round;stroke-miterlimit:10;stroke-dasharray:none;stroke-opacity:1"
             id="path96"
             inkscape:connector-curvature="0" />
        </g>
        <g
           id="g98"
           transform="translate(225.1224,481.2144)">
          <path
             d="m 0,0 c -19.929,-1.197 -44.988,14.777 -54.722,34.883 -10.979,22.68 -1.438,50.074 21.27,61.067 L 12.145,1.762 C 5.211,-0.145 0,0 0,0 m -38.402,106.173 v 0 C -66.791,92.43 -78.675,58.296 -64.945,29.934 c 9.052,-18.698 29.242,-34.882 50.084,-39.81 5.194,-1.228 10.429,-1.769 15.542,-1.462 L 27.518,-85.67 c 0.32,-1.292 0.774,-2.564 1.372,-3.8 5.241,-10.825 19.435,-14.785 31.703,-8.846 12.269,5.94 17.966,19.529 12.726,30.354 -0.598,1.236 -1.314,2.381 -2.13,3.433 L 29.53,2.628 c 3.413,3.821 6.236,8.262 8.494,13.098 9.063,19.405 8.891,45.28 -0.161,63.978 -13.73,28.362 -47.875,40.213 -76.265,26.469"
             style="fill:#fced7c;fill-opacity:1;fill-rule:nonzero;stroke:none"
             id="path100"
             inkscape:connector-curvature="0" />
        </g>
      </g>
    </g>
  </g>
</svg>
