<?xml version="1.0" encoding="UTF-8" standalone="no"?>
<!-- Created with Inkscape (http://www.inkscape.org/) -->

<svg
   xmlns:dc="http://purl.org/dc/elements/1.1/"
   xmlns:cc="http://creativecommons.org/ns#"
   xmlns:rdf="http://www.w3.org/1999/02/22-rdf-syntax-ns#"
   xmlns:svg="http://www.w3.org/2000/svg"
   xmlns="http://www.w3.org/2000/svg"
   xmlns:sodipodi="http://sodipodi.sourceforge.net/DTD/sodipodi-0.dtd"
   xmlns:inkscape="http://www.inkscape.org/namespaces/inkscape"
   width="96.003677mm"
   height="50.479561mm"
   viewBox="0 0 96.003677 50.479561"
   version="1.1"
   id="svg5085"
   inkscape:version="0.92.3 (unknown)"
   sodipodi:docname="drive.svg">
  <defs
     id="defs5079" />
  <sodipodi:namedview
     id="base"
     pagecolor="#ffffff"
     bordercolor="#666666"
     borderopacity="1.0"
     inkscape:pageopacity="0.0"
     inkscape:pageshadow="2"
     inkscape:zoom="0.35"
     inkscape:cx="132.85283"
     inkscape:cy="-21.748416"
     inkscape:document-units="mm"
     inkscape:current-layer="layer1"
     showgrid="false"
     inkscape:window-width="1366"
     inkscape:window-height="711"
     inkscape:window-x="0"
     inkscape:window-y="0"
     inkscape:window-maximized="1" />
  <metadata
     id="metadata5082">
    <rdf:RDF>
      <cc:Work
         rdf:about="">
        <dc:format>image/svg+xml</dc:format>
        <dc:type
           rdf:resource="http://purl.org/dc/dcmitype/StillImage" />
        <dc:title></dc:title>
      </cc:Work>
    </rdf:RDF>
  </metadata>
  <g
     inkscape:label="Layer 1"
     inkscape:groupmode="layer"
     id="layer1"
     transform="translate(-70.682689,-92.599503)">
    <g
       id="g316"
       transform="matrix(0.35277777,0,0,-0.35277777,162.75169,126.24019)">
      <path
         d="m 0,0 c 0,-7.305 -5.688,-13.384 -12.993,-13.384 h -5.912 C -20.745,3.625 -36.08,15.893 -53.089,13.997 -67.532,12.436 -78.908,1.004 -80.47,-13.384 h -92.069 c -1.84,17.009 -17.176,29.277 -34.184,27.381 -14.443,-1.561 -25.82,-12.993 -27.381,-27.381 h -2.788 c -7.306,0 -12.994,6.079 -12.994,13.384 v 15.893 c -0.055,5.967 3.904,11.153 9.648,12.771 l 43.441,11.878 c 1.171,0.334 2.231,1.003 2.956,2.007 l 25.987,34.073 c 3.68,4.796 9.424,7.584 15.502,7.584 h 82.199 c 6.692,0.056 12.993,-3.346 16.507,-9.034 L -33.404,42.94 c 0.558,-0.948 1.45,-1.673 2.398,-2.12 L -7.696,30.169 C -3.011,27.994 0,23.31 -0.056,18.124 V 0 Z m -29.835,-16.618 c 0,-10.93 -8.866,-19.797 -19.796,-19.797 -10.93,0 -19.797,8.867 -19.797,19.797 0,10.93 8.867,19.797 19.797,19.797 10.93,0 19.796,-8.867 19.796,-19.797 m -153.634,0 c 0,-10.93 -8.867,-19.797 -19.797,-19.797 -10.93,0 -19.796,8.867 -19.796,19.797 0,10.93 8.866,19.797 19.796,19.797 10.93,0 19.797,-8.867 19.797,-19.797 m 180.458,56.937 -21.86,9.982 -19.295,30.782 c -5.577,8.923 -15.392,14.332 -25.931,14.276 h -82.199 c -9.536,0 -18.57,-4.405 -24.369,-11.989 L -201.537,50.747 -243.138,39.37 c -10.54,-2.899 -17.845,-12.547 -17.845,-23.477 V 0 c 0,-13.44 10.707,-24.537 24.146,-24.537 h 3.57 c 4.293,-16.562 21.19,-26.489 37.753,-22.195 10.874,2.844 19.406,11.321 22.195,22.195 h 93.686 c 4.294,-16.562 21.191,-26.489 37.753,-22.195 10.874,2.844 19.406,11.321 22.195,22.195 h 6.692 C 0.446,-24.537 11.153,-13.44 11.153,0 V 18.124 C 11.209,27.66 5.632,36.359 -3.011,40.319"
         style="fill:#169bd5;fill-opacity:1;fill-rule:nonzero;stroke:none"
         id="path318"
         inkscape:connector-curvature="0" />
    </g>
  </g>
</svg>
