<?xml version="1.0" encoding="UTF-8" standalone="no"?>
<!-- Created with Inkscape (http://www.inkscape.org/) -->

<svg
   xmlns:dc="http://purl.org/dc/elements/1.1/"
   xmlns:cc="http://creativecommons.org/ns#"
   xmlns:rdf="http://www.w3.org/1999/02/22-rdf-syntax-ns#"
   xmlns:svg="http://www.w3.org/2000/svg"
   xmlns="http://www.w3.org/2000/svg"
   xmlns:sodipodi="http://sodipodi.sourceforge.net/DTD/sodipodi-0.dtd"
   xmlns:inkscape="http://www.inkscape.org/namespaces/inkscape"
   width="58.619728mm"
   height="64.836311mm"
   viewBox="0 0 58.619728 64.836311"
   version="1.1"
   id="svg4964"
   inkscape:version="0.92.3 (unknown)"
   sodipodi:docname="exercise.svg">
  <defs
     id="defs4958" />
  <sodipodi:namedview
     id="base"
     pagecolor="#ffffff"
     bordercolor="#666666"
     borderopacity="1.0"
     inkscape:pageopacity="0.0"
     inkscape:pageshadow="2"
     inkscape:zoom="0.35"
     inkscape:cx="193.63459"
     inkscape:cy="59.668158"
     inkscape:document-units="mm"
     inkscape:current-layer="layer1"
     showgrid="false"
     inkscape:window-width="1366"
     inkscape:window-height="711"
     inkscape:window-x="0"
     inkscape:window-y="0"
     inkscape:window-maximized="1" />
  <metadata
     id="metadata4961">
    <rdf:RDF>
      <cc:Work
         rdf:about="">
        <dc:format>image/svg+xml</dc:format>
        <dc:type
           rdf:resource="http://purl.org/dc/dcmitype/StillImage" />
        <dc:title></dc:title>
      </cc:Work>
    </rdf:RDF>
  </metadata>
  <g
     inkscape:label="Layer 1"
     inkscape:groupmode="layer"
     id="layer1"
     transform="translate(-54.600849,-99.784221)">
    <g
       id="g382"
       transform="matrix(0.35277777,0,0,-0.35277777,77.162046,141.06027)">
      <path
         d="M 0,0 C 4.648,-0.555 9.146,-1.963 13.288,-4.136 7.356,-11.56 0.869,-18.455 -6.153,-24.759 -3.743,-16.601 -1.688,-8.323 0,0 m 94.553,-56.01 c -0.645,-1.472 -1.822,-2.61 -3.321,-3.194 -1.504,-0.585 -3.138,-0.555 -4.61,0.085 -1.472,0.647 -2.607,1.824 -3.196,3.321 v 0.006 C 74.954,-34.183 62.545,-14.688 46.547,2.148 46.535,2.16 46.519,2.164 46.507,2.176 46.312,2.374 46.103,2.559 45.854,2.714 45.731,2.79 45.602,2.844 45.471,2.905 45.421,2.931 45.369,2.959 45.32,2.983 44.94,3.138 44.542,3.22 44.146,3.241 44.089,3.243 44.029,3.251 43.971,3.251 43.571,3.253 43.176,3.184 42.798,3.053 42.74,3.033 42.685,3.019 42.631,2.999 42.235,2.84 41.873,2.611 41.547,2.315 41.531,2.297 41.505,2.295 41.489,2.275 41.477,2.265 41.473,2.249 41.461,2.239 41.263,2.042 41.078,1.832 40.923,1.585 25.713,-22.643 4.874,-43.488 -19.346,-58.699 c -0.002,0 -0.002,0 -0.002,-0.002 -2.818,-1.762 -6.538,-0.913 -8.304,1.899 -0.855,1.364 -1.128,2.975 -0.772,4.546 0.36,1.569 1.305,2.904 2.669,3.761 5.007,3.144 9.818,6.538 14.457,10.13 0.088,0.058 0.162,0.129 0.243,0.195 12.21,9.488 23.134,20.477 32.564,32.862 0.028,0.038 0.042,0.08 0.07,0.118 0.02,0.025 0.046,0.043 0.066,0.071 0.041,0.068 0.069,0.143 0.109,0.213 0.066,0.109 0.123,0.215 0.175,0.33 0.046,0.107 0.081,0.213 0.121,0.322 0.036,0.114 0.074,0.225 0.098,0.342 0.028,0.116 0.041,0.229 0.053,0.342 0.016,0.116 0.028,0.227 0.032,0.338 0.004,0.122 -0.004,0.233 -0.016,0.35 -0.008,0.114 -0.016,0.225 -0.035,0.337 -0.02,0.115 -0.046,0.222 -0.078,0.336 -0.028,0.109 -0.058,0.218 -0.098,0.326 -0.041,0.107 -0.093,0.211 -0.143,0.314 -0.049,0.103 -0.101,0.207 -0.159,0.304 -0.061,0.102 -0.135,0.195 -0.209,0.291 -0.069,0.091 -0.135,0.183 -0.212,0.266 -0.086,0.092 -0.181,0.175 -0.277,0.259 -0.059,0.049 -0.109,0.113 -0.173,0.161 -0.032,0.024 -0.063,0.037 -0.095,0.057 -0.036,0.024 -0.06,0.052 -0.094,0.076 C 13.698,4.457 5.624,7.07 -2.707,7.406 -2.748,7.408 -2.788,7.4 -2.83,7.402 -2.897,7.402 -2.963,7.394 -3.033,7.392 -4.453,7.344 -5.628,6.471 -6.143,5.226 -6.163,5.178 -6.179,5.123 -6.195,5.073 -6.252,4.91 -6.308,4.749 -6.342,4.576 -6.348,4.55 -6.36,4.528 -6.366,4.502 c -2.442,-12.751 -5.803,-25.433 -9.965,-37.722 -4.232,-3.246 -8.615,-6.309 -13.161,-9.164 6.605,16.874 11.564,34.4 14.734,52.244 0.002,0.014 0.002,0.028 0.004,0.042 0,0.005 0.004,0.009 0.006,0.017 L -9.758,41 c 0,0.002 0.002,0.002 0.002,0.006 0,0.006 0,0.014 0.002,0.02 l 0.01,0.056 v 0.026 c 3.016,21.087 3.577,42.523 1.668,63.71 -0.229,2.53 1.645,4.777 4.178,5.007 1.219,0.13 2.424,-0.264 3.369,-1.052 C 0.416,107.986 1,106.872 1.11,105.647 3.011,84.56 2.545,63.225 -0.274,42.233 c -0.004,-0.024 0,-0.044 -0.002,-0.068 -0.004,-0.019 -0.01,-0.037 -0.012,-0.057 -0.01,-0.094 0.002,-0.183 0,-0.277 -0.004,-0.129 -0.01,-0.262 0.002,-0.391 0.01,-0.112 0.035,-0.215 0.051,-0.323 0.024,-0.121 0.042,-0.244 0.076,-0.363 0.034,-0.112 0.079,-0.215 0.123,-0.321 0.042,-0.107 0.082,-0.214 0.133,-0.318 0.056,-0.105 0.124,-0.201 0.189,-0.3 0.06,-0.094 0.116,-0.187 0.183,-0.273 C 0.545,39.447 0.632,39.361 0.716,39.274 0.792,39.198 0.861,39.117 0.943,39.047 1.036,38.966 1.141,38.9 1.243,38.83 1.33,38.769 1.412,38.705 1.505,38.652 1.619,38.588 1.738,38.54 1.857,38.486 1.955,38.447 2.046,38.401 2.148,38.367 2.275,38.323 2.41,38.3 2.545,38.272 2.631,38.252 2.709,38.224 2.796,38.212 2.82,38.206 2.842,38.208 2.868,38.206 2.888,38.204 2.905,38.196 2.923,38.194 19.554,36.569 35.448,29.402 47.67,18.019 68.143,-1.233 84.387,-25.234 94.644,-51.395 v -0.004 c 0.585,-1.501 0.549,-3.14 -0.091,-4.611 M -40.976,15.472 c -8.722,0 -15.816,7.095 -15.816,15.816 0,8.72 7.094,15.813 15.816,15.813 8.72,0 15.814,-7.093 15.814,-15.813 0,-8.721 -7.094,-15.816 -15.814,-15.816 m 142.334,-64.437 c -0.024,0.058 -0.028,0.122 -0.05,0.179 -10.643,27.145 -27.499,52.053 -48.75,72.027 0,0.004 -0.004,0.004 -0.004,0.006 -0.004,0.002 -0.004,0.004 -0.008,0.006 -12.475,11.616 -28.439,19.211 -45.297,21.621 2.476,20.358 2.828,40.996 0.988,61.412 -0.284,3.132 -1.77,5.966 -4.184,7.98 -2.414,2.017 -5.477,2.969 -8.601,2.689 -6.219,-0.565 -10.828,-5.901 -10.655,-12.055 -0.028,-0.237 -0.032,-0.48 -0.008,-0.726 1.863,-20.666 1.314,-41.569 -1.633,-62.13 l -1.31,-8.175 c -1.287,11.46 -11.028,20.397 -22.822,20.397 -12.67,0 -22.977,-10.307 -22.977,-22.975 0,-12.667 10.307,-22.976 22.977,-22.976 9.263,0 17.243,5.522 20.875,13.437 l -1.707,-10.639 c 0,0 -0.002,0 -0.002,-0.002 -3.631,-20.45 -9.653,-40.483 -17.897,-59.545 -0.042,-0.097 -0.062,-0.201 -0.096,-0.298 -1.127,-2.81 -1.163,-5.884 -0.044,-8.708 1.158,-2.924 3.383,-5.221 6.271,-6.469 1.316,-0.569 2.738,-0.852 4.17,-0.915 2.078,-1.263 4.456,-1.949 6.877,-1.949 2.39,0 4.812,0.65 6.984,2.012 0.002,0 0.004,0 0.008,0.002 23.8,14.949 44.442,35.144 59.964,58.59 13.866,-15.376 24.76,-32.91 32.335,-52.236 0.004,-0.006 0.008,-0.01 0.012,-0.016 1.285,-3.273 3.765,-5.846 6.984,-7.254 1.695,-0.738 3.48,-1.11 5.274,-1.11 1.623,0 3.256,0.304 4.817,0.919 3.277,1.284 5.856,3.768 7.266,6.996 1.384,3.162 1.454,6.674 0.243,9.905"
         style="fill:#3cc5f3;fill-opacity:1;fill-rule:nonzero;stroke:none"
         id="path384"
         inkscape:connector-curvature="0" />
    </g>
  </g>
</svg>
