<?xml version="1.0" encoding="UTF-8" standalone="no"?>
<!-- Created with Inkscape (http://www.inkscape.org/) -->

<svg
   xmlns:dc="http://purl.org/dc/elements/1.1/"
   xmlns:cc="http://creativecommons.org/ns#"
   xmlns:rdf="http://www.w3.org/1999/02/22-rdf-syntax-ns#"
   xmlns:svg="http://www.w3.org/2000/svg"
   xmlns="http://www.w3.org/2000/svg"
   xmlns:sodipodi="http://sodipodi.sourceforge.net/DTD/sodipodi-0.dtd"
   xmlns:inkscape="http://www.inkscape.org/namespaces/inkscape"
   width="68.940422mm"
   height="69.250717mm"
   viewBox="0 0 68.940422 69.250717"
   version="1.1"
   id="svg4770"
   inkscape:version="0.92.3 (unknown)"
   sodipodi:docname="getdressed.svg">
  <defs
     id="defs4764" />
  <sodipodi:namedview
     id="base"
     pagecolor="#ffffff"
     bordercolor="#666666"
     borderopacity="1.0"
     inkscape:pageopacity="0.0"
     inkscape:pageshadow="2"
     inkscape:zoom="0.35"
     inkscape:cx="153.13829"
     inkscape:cy="25.154066"
     inkscape:document-units="mm"
     inkscape:current-layer="layer1"
     showgrid="false"
     inkscape:window-width="1366"
     inkscape:window-height="711"
     inkscape:window-x="0"
     inkscape:window-y="0"
     inkscape:window-maximized="1" />
  <metadata
     id="metadata4767">
    <rdf:RDF>
      <cc:Work
         rdf:about="">
        <dc:format>image/svg+xml</dc:format>
        <dc:type
           rdf:resource="http://purl.org/dc/dcmitype/StillImage" />
        <dc:title></dc:title>
      </cc:Work>
    </rdf:RDF>
  </metadata>
  <g
     inkscape:label="Layer 1"
     inkscape:groupmode="layer"
     id="layer1"
     transform="translate(-65.315495,-86.237965)">
    <path
       d="m 131.98758,117.07074 h -20.34964 v -2.35796 h 20.34964 z m 0,32.3843 H 117.76569 V 131.6514 c 0,-1.07491 -0.87489,-1.95016 -1.95051,-1.95016 h -2.62502 c -1.07491,0 -1.95015,0.87525 -1.95015,1.95016 v 17.80364 h -4.73181 c 0.0607,-0.37536 0.1009,-0.75742 0.1009,-1.14971 v -2.26836 c 0,-1.87607 -1.52647,-3.40219 -3.40255,-3.40219 h -6.188783 v -14.04337 h 12.759623 c 1.02623,0 1.86055,-0.83997 1.86055,-1.87325 v -7.37906 h 20.34964 z m -27.64685,-1.14971 c 0,2.71004 -2.20486,4.91455 -4.914543,4.91455 h -0.72884 c -2.70969,0 -4.91455,-2.20451 -4.91455,-4.91455 v -2.26836 c 0,-0.62512 0.50871,-1.13383 1.13418,-1.13383 h 8.289573 c 0.62548,0 1.13418,0.50871 1.13418,1.13383 z M 80.379717,126.3234 v -23.96067 c 0,-0.65899 -0.33373,-1.25765 -0.89288,-1.6002 -0.55245,-0.33902 -1.22767,-0.36653 -1.80729,-0.072 l -5.53614,2.81552 -4.43159,-8.654693 11.66213,-6.326364 6.31366,-0.0035 c 1.14229,5.014031 4.88562,8.558389 9.18739,8.558389 4.30601,0 8.051103,-3.54965 9.189513,-8.569678 l 6.3126,-0.0039 11.66178,6.34365 -4.43195,8.656106 -5.53684,-2.81552 c -0.57821,-0.29457 -1.25378,-0.26705 -1.80764,0.072 -0.5588,0.3429 -0.89253,0.94121 -0.89253,1.6002 v 23.96066 z m 3.14148,21.98193 c 0,2.71004 -2.20486,4.91455 -4.91455,4.91455 h -0.72919 c -2.71004,0 -4.91454,-2.20451 -4.91454,-4.91455 v -2.26836 c 0,-0.62512 0.5087,-1.13383 1.13382,-1.13383 h 8.29028 c 0.62548,0 1.13418,0.50871 1.13418,1.13383 z m 48.783883,-35.86092 h -20.66714 v -9.42904 l 5.30896,2.70016 c 0.90699,0.46073 2.02635,0.0963 2.49343,-0.81386 l 4.7886,-9.352136 c 0.46214,-0.899583 0.11818,-2.024591 -0.76729,-2.507544 0,-3.44e-4 -7.9e-4,-3.44e-4 -7.9e-4,-7.15e-4 l -12.254,-6.665374 c -0.16616,-0.09066 -0.35278,-0.137936 -0.54187,-0.137936 h -7.9e-4 l -7.53816,0.0046 c -0.5588,3.53e-4 -1.03434,0.407811 -1.12007,0.960614 -0.68262,4.408664 -3.681593,7.608358 -7.131053,7.608358 -3.44593,0 -6.44454,-3.195814 -7.12999,-7.599539 -0.086,-0.55245 -0.56153,-0.959555 -1.12033,-0.959555 h -7.2e-4 l -7.5385,0.0046 c -0.18873,0 -0.37429,0.04692 -0.5401,0.13723 l -12.25373,6.647039 c -0.88759,0.481542 -1.23332,1.607256 -0.77082,2.507545 l 4.7886,9.352493 c 0.46602,0.91122 1.58503,1.2767 2.49379,0.81386 l 5.30824,-2.69946 v 23.70241 c 0,1.03328 0.83503,1.87325 1.86161,1.87325 h 14.77681 v 14.06031 c -0.012,2.6e-4 -0.0233,0.003 -0.0353,0.004 -0.066,-0.012 -0.13335,-0.0205 -0.20285,-0.0205 h -12.12462 -8.29028 c -1.87607,0 -3.40219,1.52611 -3.40219,3.40218 v 2.26837 c 0,3.96063 3.22228,7.18291 7.18291,7.18291 h 0.72919 c 3.96064,0 7.18291,-3.22228 7.18291,-7.18291 v -2.26837 c 0,-0.39934 -0.0822,-0.77752 -0.20919,-1.13382 h 6.14291 c -0.127,0.3563 -0.20884,0.73448 -0.20884,1.13382 v 2.26837 c 0,3.96063 3.22227,7.18291 7.18291,7.18291 h 0.72884 c 2.724153,0 5.098693,-1.52436 6.316133,-3.76485 h 5.81519 c 1.07597,0 1.95086,-0.87489 1.95086,-1.95086 v -17.80291 h 1.98931 v 17.80293 c 0,1.07597 0.87489,1.95086 1.94981,1.95086 h 14.85759 c 1.07597,0 1.95086,-0.87489 1.95086,-1.95086 v -35.37762 c 0,-1.07562 -0.87489,-1.95051 -1.95086,-1.95051"
       style="fill:#a4ecef;fill-opacity:1;fill-rule:nonzero;stroke:none;stroke-width:0.35277775"
       id="path320"
       inkscape:connector-curvature="0" />
  </g>
</svg>
