<?xml version="1.0" encoding="UTF-8" standalone="no"?>
<!-- Created with Inkscape (http://www.inkscape.org/) -->

<svg
   xmlns:dc="http://purl.org/dc/elements/1.1/"
   xmlns:cc="http://creativecommons.org/ns#"
   xmlns:rdf="http://www.w3.org/1999/02/22-rdf-syntax-ns#"
   xmlns:svg="http://www.w3.org/2000/svg"
   xmlns="http://www.w3.org/2000/svg"
   xmlns:sodipodi="http://sodipodi.sourceforge.net/DTD/sodipodi-0.dtd"
   xmlns:inkscape="http://www.inkscape.org/namespaces/inkscape"
   width="63.282333mm"
   height="63.282333mm"
   viewBox="0 0 63.282333 63.282333"
   version="1.1"
   id="svg5032"
   inkscape:version="0.92.3 (unknown)"
   sodipodi:docname="petcare.svg">
  <defs
     id="defs5026">
    <clipPath
       clipPathUnits="userSpaceOnUse"
       id="clipPath400">
      <path
         d="M 0,1410.141 H 1644.893 V 0 H 0 Z"
         id="path398"
         inkscape:connector-curvature="0" />
    </clipPath>
  </defs>
  <sodipodi:namedview
     id="base"
     pagecolor="#ffffff"
     bordercolor="#666666"
     borderopacity="1.0"
     inkscape:pageopacity="0.0"
     inkscape:pageshadow="2"
     inkscape:zoom="0.35"
     inkscape:cx="202.44579"
     inkscape:cy="-126.12563"
     inkscape:document-units="mm"
     inkscape:current-layer="layer1"
     showgrid="false"
     inkscape:window-width="1366"
     inkscape:window-height="711"
     inkscape:window-x="0"
     inkscape:window-y="0"
     inkscape:window-maximized="1" />
  <metadata
     id="metadata5029">
    <rdf:RDF>
      <cc:Work
         rdf:about="">
        <dc:format>image/svg+xml</dc:format>
        <dc:type
           rdf:resource="http://purl.org/dc/dcmitype/StillImage" />
        <dc:title></dc:title>
      </cc:Work>
    </rdf:RDF>
  </metadata>
  <g
     inkscape:label="Layer 1"
     inkscape:groupmode="layer"
     id="layer1"
     transform="translate(-52.269551,-52.180258)">
    <g
       transform="matrix(0.35277777,0,0,-0.35277777,-249.12141,161.7113)"
       id="g394">
      <g
         id="g396"
         clip-path="url(#clipPath400)">
        <g
           id="g402"
           transform="translate(915.2976,303.4817)">
          <path
             d="m 0,0 c -8.631,0 -15.654,-7.022 -15.654,-15.653 v -9.577 c 0,-8.631 7.023,-15.654 15.654,-15.654 8.631,0 15.654,7.023 15.654,15.654 v 9.577 C 15.654,-7.022 8.631,0 0,0 m 0,-47.884 c -12.491,0 -22.654,10.162 -22.654,22.654 v 9.577 C -22.654,-3.162 -12.491,7 0,7 12.491,7 22.654,-3.162 22.654,-15.653 V -25.23 C 22.654,-37.722 12.491,-47.884 0,-47.884 M 57.461,0 C 48.83,0 41.808,-7.022 41.808,-15.653 v -9.577 c 0,-8.631 7.022,-15.654 15.653,-15.654 8.632,0 15.654,7.023 15.654,15.654 v 9.577 C 73.115,-7.022 66.093,0 57.461,0 m 0,-47.884 c -12.491,0 -22.653,10.162 -22.653,22.654 v 9.577 C 34.808,-3.162 44.97,7 57.461,7 69.953,7 80.115,-3.162 80.115,-15.653 v -9.577 c 0,-12.492 -10.162,-22.654 -22.654,-22.654 m -95.769,0 c -8.631,0 -15.653,-7.022 -15.653,-15.654 v -9.576 c 0,-8.632 7.022,-15.655 15.653,-15.655 8.632,0 15.654,7.023 15.654,15.655 v 9.576 c 0,8.632 -7.022,15.654 -15.654,15.654 m 0,-47.885 c -12.491,0 -22.653,10.164 -22.653,22.655 v 9.576 c 0,12.491 10.162,22.654 22.653,22.654 12.492,0 22.654,-10.163 22.654,-22.654 v -9.576 c 0,-12.491 -10.162,-22.655 -22.654,-22.655 m 134.077,47.885 c -8.632,0 -15.654,-7.022 -15.654,-15.654 v -9.576 c 0,-8.632 7.022,-15.655 15.654,-15.655 8.631,0 15.653,7.023 15.653,15.655 v 9.576 c 0,8.632 -7.022,15.654 -15.653,15.654 m 0,-47.885 c -12.492,0 -22.654,10.164 -22.654,22.655 v 9.576 c 0,12.491 10.162,22.654 22.654,22.654 12.491,0 22.653,-10.163 22.653,-22.654 v -9.576 c 0,-12.491 -10.162,-22.655 -22.653,-22.655 m -67.01,26.002 c -7.531,0 -14.98,-3.387 -19.882,-9.83 l -34.797,-45.739 c -3.284,-4.316 -5.092,-9.681 -5.092,-15.103 0,-13.754 11.189,-24.944 24.943,-24.944 h 69.597 c 5.422,0 10.786,1.809 15.103,5.093 10.946,8.327 13.076,24.008 4.748,34.954 l -34.798,45.739 c -1.364,1.792 -2.961,3.39 -4.748,4.748 -4.504,3.426 -9.81,5.082 -15.074,5.082 M 63.528,-172.383 H -6.069 c -17.614,0 -31.943,14.33 -31.943,31.944 0,6.945 2.316,13.814 6.521,19.341 l 34.797,45.74 c 10.667,14.017 30.747,16.745 44.764,6.081 2.288,-1.74 4.335,-3.786 6.081,-6.081 h 10e-4 l 34.799,-45.74 c 10.664,-14.017 7.936,-34.098 -6.082,-44.763 -5.528,-4.206 -12.397,-6.522 -19.341,-6.522"
             style="fill:#3cc5f3;fill-opacity:1;fill-rule:nonzero;stroke:none"
             id="path404"
             inkscape:connector-curvature="0" />
        </g>
      </g>
    </g>
  </g>
</svg>
