<?xml version="1.0" encoding="UTF-8" standalone="no"?>
<!-- Created with Inkscape (http://www.inkscape.org/) -->

<svg
   xmlns:dc="http://purl.org/dc/elements/1.1/"
   xmlns:cc="http://creativecommons.org/ns#"
   xmlns:rdf="http://www.w3.org/1999/02/22-rdf-syntax-ns#"
   xmlns:svg="http://www.w3.org/2000/svg"
   xmlns="http://www.w3.org/2000/svg"
   xmlns:sodipodi="http://sodipodi.sourceforge.net/DTD/sodipodi-0.dtd"
   xmlns:inkscape="http://www.inkscape.org/namespaces/inkscape"
   width="53.697716mm"
   height="69.481346mm"
   viewBox="0 0 53.697716 69.481346"
   version="1.1"
   id="svg4872"
   inkscape:version="0.92.3 (unknown)"
   sodipodi:docname="shower.svg">
  <defs
     id="defs4866" />
  <sodipodi:namedview
     id="base"
     pagecolor="#ffffff"
     bordercolor="#666666"
     borderopacity="1.0"
     inkscape:pageopacity="0.0"
     inkscape:pageshadow="2"
     inkscape:zoom="0.35"
     inkscape:cx="-216.24853"
     inkscape:cy="-85.696161"
     inkscape:document-units="mm"
     inkscape:current-layer="layer1"
     showgrid="false"
     inkscape:window-width="1366"
     inkscape:window-height="711"
     inkscape:window-x="0"
     inkscape:window-y="0"
     inkscape:window-maximized="1" />
  <metadata
     id="metadata4869">
    <rdf:RDF>
      <cc:Work
         rdf:about="">
        <dc:format>image/svg+xml</dc:format>
        <dc:type
           rdf:resource="http://purl.org/dc/dcmitype/StillImage" />
        <dc:title></dc:title>
      </cc:Work>
    </rdf:RDF>
  </metadata>
  <g
     inkscape:label="Layer 1"
     inkscape:groupmode="layer"
     id="layer1"
     transform="translate(-68.401142,-124.676)">
    <g
       id="g346"
       transform="matrix(0.35277777,0,0,-0.35277777,87.590489,155.71021)">
      <path
         d="M 0,0 29.311,32.916 H 47.339 L 76.65,0 Z M 92.352,0 H 91.344 L 53.891,42.066 c -1.046,1.163 -2.52,1.822 -4.071,1.822 h -6.242 c -2.559,24.736 -23.495,44.083 -48.89,44.083 -27.062,0 -49.083,-22.022 -49.083,-49.123 v -142.366 c 0,-3.024 2.442,-5.466 5.466,-5.466 3.024,0 5.467,2.442 5.467,5.466 V 38.848 c 0,21.053 17.137,38.151 38.15,38.151 19.347,0 35.321,-14.462 37.802,-33.149 h -5.622 c -1.551,0 -3.063,-0.659 -4.071,-1.823 L -14.655,0 h -1.008 c -3.024,0 -5.467,-2.443 -5.467,-5.467 0,-3.024 2.443,-5.466 5.467,-5.466 H 92.352 c 3.024,0 5.467,2.442 5.467,5.466 0,3.024 -2.443,5.467 -5.467,5.467"
         style="fill:#a4ecef;fill-opacity:1;fill-rule:nonzero;stroke:none"
         id="path348"
         inkscape:connector-curvature="0" />
    </g>
    <g
       id="g350"
       transform="matrix(0.35277777,0,0,-0.35277777,87.494747,162.67203)">
      <path
         d="m 0,0 c -3.024,0 -5.467,-2.443 -5.467,-5.467 v -5.66 c 0,-3.024 2.443,-5.467 5.467,-5.467 3.024,0 5.467,2.443 5.467,5.467 v 5.66 C 5.467,-2.443 3.024,0 0,0"
         style="fill:#a4ecef;fill-opacity:1;fill-rule:nonzero;stroke:none"
         id="path352"
         inkscape:connector-curvature="0" />
    </g>
    <g
       id="g354"
       transform="matrix(0.35277777,0,0,-0.35277777,96.576584,162.67203)">
      <path
         d="m 0,0 c -3.024,0 -5.467,-2.443 -5.467,-5.467 v -5.66 c 0,-3.024 2.443,-5.467 5.467,-5.467 3.024,0 5.467,2.443 5.467,5.467 v 5.66 C 5.467,-2.443 3.024,0 0,0"
         style="fill:#a4ecef;fill-opacity:1;fill-rule:nonzero;stroke:none"
         id="path356"
         inkscape:connector-curvature="0" />
    </g>
    <g
       id="g358"
       transform="matrix(0.35277777,0,0,-0.35277777,105.65843,162.67203)">
      <path
         d="m 0,0 c -3.024,0 -5.467,-2.443 -5.467,-5.467 v -5.66 c 0,-3.024 2.443,-5.467 5.467,-5.467 3.024,0 5.467,2.443 5.467,5.467 v 5.66 C 5.467,-2.443 3.024,0 0,0"
         style="fill:#a4ecef;fill-opacity:1;fill-rule:nonzero;stroke:none"
         id="path360"
         inkscape:connector-curvature="0" />
    </g>
    <g
       id="g362"
       transform="matrix(0.35277777,0,0,-0.35277777,114.74023,162.67203)">
      <path
         d="m 0,0 c -3.024,0 -5.467,-2.443 -5.467,-5.467 v -5.66 c 0,-3.024 2.443,-5.467 5.467,-5.467 3.024,0 5.467,2.443 5.467,5.467 v 5.66 C 5.467,-2.443 3.024,0 0,0"
         style="fill:#a4ecef;fill-opacity:1;fill-rule:nonzero;stroke:none"
         id="path364"
         inkscape:connector-curvature="0" />
    </g>
    <g
       id="g366"
       transform="matrix(0.35277777,0,0,-0.35277777,92.035666,172.54715)">
      <path
         d="m 0,0 c -3.024,0 -5.467,-2.443 -5.467,-5.467 v -5.66 c 0,-3.024 2.443,-5.467 5.467,-5.467 3.024,0 5.467,2.443 5.467,5.467 v 5.66 C 5.467,-2.481 3.024,0 0,0"
         style="fill:#a4ecef;fill-opacity:1;fill-rule:nonzero;stroke:none"
         id="path368"
         inkscape:connector-curvature="0" />
    </g>
    <g
       id="g370"
       transform="matrix(0.35277777,0,0,-0.35277777,101.11751,172.54715)">
      <path
         d="m 0,0 c -3.024,0 -5.467,-2.443 -5.467,-5.467 v -5.66 c 0,-3.024 2.443,-5.467 5.467,-5.467 3.024,0 5.467,2.443 5.467,5.467 v 5.66 C 5.467,-2.481 3.024,0 0,0"
         style="fill:#a4ecef;fill-opacity:1;fill-rule:nonzero;stroke:none"
         id="path372"
         inkscape:connector-curvature="0" />
    </g>
    <g
       id="g374"
       transform="matrix(0.35277777,0,0,-0.35277777,110.19931,172.54715)">
      <path
         d="m 0,0 c -3.024,0 -5.467,-2.443 -5.467,-5.467 v -5.66 c 0,-3.024 2.443,-5.467 5.467,-5.467 3.024,0 5.467,2.443 5.467,5.467 v 5.66 C 5.467,-2.481 3.024,0 0,0"
         style="fill:#a4ecef;fill-opacity:1;fill-rule:nonzero;stroke:none"
         id="path376"
         inkscape:connector-curvature="0" />
    </g>
  </g>
</svg>
