<?xml version="1.0" encoding="UTF-8" standalone="no"?>
<!-- Created with Inkscape (http://www.inkscape.org/) -->

<svg
   xmlns:dc="http://purl.org/dc/elements/1.1/"
   xmlns:cc="http://creativecommons.org/ns#"
   xmlns:rdf="http://www.w3.org/1999/02/22-rdf-syntax-ns#"
   xmlns:svg="http://www.w3.org/2000/svg"
   xmlns="http://www.w3.org/2000/svg"
   xmlns:sodipodi="http://sodipodi.sourceforge.net/DTD/sodipodi-0.dtd"
   xmlns:inkscape="http://www.inkscape.org/namespaces/inkscape"
   width="88.176598mm"
   height="65.837044mm"
   viewBox="0 0 88.176598 65.837044"
   version="1.1"
   id="svg4476"
   inkscape:version="0.92.3 (unknown)"
   sodipodi:docname="takemedicine.svg">
  <defs
     id="defs4470" />
  <sodipodi:namedview
     id="base"
     pagecolor="#ffffff"
     bordercolor="#666666"
     borderopacity="1.0"
     inkscape:pageopacity="0.0"
     inkscape:pageshadow="2"
     inkscape:zoom="0.35"
     inkscape:cx="286.63294"
     inkscape:cy="-92.726397"
     inkscape:document-units="mm"
     inkscape:current-layer="layer1"
     showgrid="false"
     inkscape:window-width="1366"
     inkscape:window-height="711"
     inkscape:window-x="0"
     inkscape:window-y="0"
     inkscape:window-maximized="1" />
  <metadata
     id="metadata4473">
    <rdf:RDF>
      <cc:Work
         rdf:about="">
        <dc:format>image/svg+xml</dc:format>
        <dc:type
           rdf:resource="http://purl.org/dc/dcmitype/StillImage" />
        <dc:title></dc:title>
      </cc:Work>
    </rdf:RDF>
  </metadata>
  <g
     inkscape:label="Layer 1"
     inkscape:groupmode="layer"
     id="layer1"
     transform="translate(-29.995034,-58.462429)">
    <g
       id="g60"
       transform="matrix(0.35277777,0,0,-0.35277777,45.456536,113.65825)">
      <path
         d="M 0,0 C -0.155,-0.026 -0.311,-0.049 -0.466,-0.073 -0.311,-0.049 -0.155,-0.026 0,0"
         style="fill:#afe94f;fill-opacity:1;fill-rule:nonzero;stroke:none"
         id="path62"
         inkscape:connector-curvature="0" />
    </g>
    <g
       id="g64"
       transform="matrix(0.35277777,0,0,-0.35277777,43.227926,113.79703)">
      <path
         d="M 0,0 C 0.091,-0.004 0.183,-0.002 0.274,-0.004 0.125,0 -0.024,0.004 -0.172,0.011 -0.115,0.008 -0.057,0.002 0,0"
         style="fill:#afe94f;fill-opacity:1;fill-rule:nonzero;stroke:none"
         id="path66"
         inkscape:connector-curvature="0" />
    </g>
    <g
       id="g68"
       transform="matrix(0.35277777,0,0,-0.35277777,44.924506,113.73237)">
      <path
         d="M 0,0 C -0.154,-0.018 -0.308,-0.034 -0.462,-0.05 -0.308,-0.034 -0.154,-0.018 0,0"
         style="fill:#afe94f;fill-opacity:1;fill-rule:nonzero;stroke:none"
         id="path70"
         inkscape:connector-curvature="0" />
    </g>
    <g
       id="g72"
       transform="matrix(0.35277777,0,0,-0.35277777,44.391566,113.78048)">
      <path
         d="M 0,0 C -0.153,-0.01 -0.306,-0.02 -0.459,-0.028 -0.306,-0.02 -0.153,-0.01 0,0"
         style="fill:#afe94f;fill-opacity:1;fill-rule:nonzero;stroke:none"
         id="path74"
         inkscape:connector-curvature="0" />
    </g>
    <g
       id="g76"
       transform="matrix(0.35277777,0,0,-0.35277777,43.858556,113.8026)">
      <path
         d="M 0,0 C -0.151,-0.003 -0.302,-0.005 -0.452,-0.006 -0.302,-0.005 -0.151,-0.003 0,0"
         style="fill:#afe94f;fill-opacity:1;fill-rule:nonzero;stroke:none"
         id="path78"
         inkscape:connector-curvature="0" />
    </g>
    <g
       id="g80"
       transform="matrix(0.35277777,0,0,-0.35277777,40.879236,113.43342)">
      <path
         d="M 0,0 C -0.176,0.048 -0.352,0.099 -0.528,0.151 -0.352,0.099 -0.177,0.048 0,0"
         style="fill:#afe94f;fill-opacity:1;fill-rule:nonzero;stroke:none"
         id="path82"
         inkscape:connector-curvature="0" />
    </g>
    <g
       id="g84"
       transform="matrix(0.35277777,0,0,-0.35277777,41.361486,113.55266)">
      <path
         d="M 0,0 C -0.173,0.039 -0.346,0.079 -0.519,0.121 -0.346,0.079 -0.173,0.039 0,0"
         style="fill:#afe94f;fill-opacity:1;fill-rule:nonzero;stroke:none"
         id="path86"
         inkscape:connector-curvature="0" />
    </g>
    <g
       id="g88"
       transform="matrix(0.35277777,0,0,-0.35277777,42.835926,113.77191)">
      <path
         d="M 0,0 C -0.161,0.013 -0.322,0.025 -0.483,0.04 -0.322,0.025 -0.161,0.013 0,0"
         style="fill:#afe94f;fill-opacity:1;fill-rule:nonzero;stroke:none"
         id="path90"
         inkscape:connector-curvature="0" />
    </g>
    <g
       id="g92"
       transform="matrix(0.35277777,0,0,-0.35277777,41.848106,113.64869)">
      <path
         d="M 0,0 C -0.168,0.029 -0.335,0.059 -0.502,0.091 -0.335,0.059 -0.168,0.029 0,0"
         style="fill:#afe94f;fill-opacity:1;fill-rule:nonzero;stroke:none"
         id="path94"
         inkscape:connector-curvature="0" />
    </g>
    <g
       id="g96"
       transform="matrix(0.35277777,0,0,-0.35277777,42.340696,113.72189)">
      <path
         d="M 0,0 C -0.165,0.021 -0.33,0.042 -0.494,0.065 -0.33,0.042 -0.165,0.021 0,0"
         style="fill:#afe94f;fill-opacity:1;fill-rule:nonzero;stroke:none"
         id="path98"
         inkscape:connector-curvature="0" />
    </g>
    <g
       id="g100"
       transform="matrix(0.35277777,0,0,-0.35277777,50.021796,111.82811)">
      <path
         d="M 0,0 C -0.074,-0.051 -0.151,-0.097 -0.225,-0.147 -0.151,-0.097 -0.074,-0.051 0,0"
         style="fill:#afe94f;fill-opacity:1;fill-rule:nonzero;stroke:none"
         id="path102"
         inkscape:connector-curvature="0" />
    </g>
    <g
       id="g104"
       transform="matrix(0.35277777,0,0,-0.35277777,49.546676,112.13428)">
      <path
         d="M 0,0 C -0.104,-0.064 -0.21,-0.122 -0.314,-0.184 -0.21,-0.122 -0.104,-0.064 0,0"
         style="fill:#afe94f;fill-opacity:1;fill-rule:nonzero;stroke:none"
         id="path106"
         inkscape:connector-curvature="0" />
    </g>
    <g
       id="g108"
       transform="matrix(0.35277777,0,0,-0.35277777,40.402636,113.29083)">
      <path
         d="M 0,0 C -0.179,0.058 -0.357,0.12 -0.535,0.182 -0.357,0.12 -0.179,0.058 0,0"
         style="fill:#afe94f;fill-opacity:1;fill-rule:nonzero;stroke:none"
         id="path110"
         inkscape:connector-curvature="0" />
    </g>
    <g
       id="g112"
       transform="matrix(0.35277777,0,0,-0.35277777,45.985836,113.55827)">
      <path
         d="M 0,0 C -0.154,-0.033 -0.308,-0.064 -0.463,-0.094 -0.308,-0.064 -0.154,-0.033 0,0"
         style="fill:#afe94f;fill-opacity:1;fill-rule:nonzero;stroke:none"
         id="path114"
         inkscape:connector-curvature="0" />
    </g>
    <g
       id="g116"
       transform="matrix(0.35277777,0,0,-0.35277777,49.061006,112.41495)">
      <path
         d="M 0,0 C -0.122,-0.066 -0.245,-0.128 -0.367,-0.193 -0.245,-0.128 -0.122,-0.067 0,0"
         style="fill:#afe94f;fill-opacity:1;fill-rule:nonzero;stroke:none"
         id="path118"
         inkscape:connector-curvature="0" />
    </g>
    <g
       id="g120"
       transform="matrix(0.35277777,0,0,-0.35277777,50.485416,111.49643)">
      <path
         d="M 0,0 C -0.019,-0.015 -0.039,-0.028 -0.058,-0.042 -0.039,-0.028 -0.019,-0.015 0,0"
         style="fill:#afe94f;fill-opacity:1;fill-rule:nonzero;stroke:none"
         id="path122"
         inkscape:connector-curvature="0" />
    </g>
    <g
       id="g124"
       transform="matrix(0.35277777,0,0,-0.35277777,46.512356,113.43233)">
      <path
         d="M 0,0 C -0.153,-0.041 -0.306,-0.078 -0.46,-0.117 -0.306,-0.078 -0.153,-0.041 0,0"
         style="fill:#afe94f;fill-opacity:1;fill-rule:nonzero;stroke:none"
         id="path126"
         inkscape:connector-curvature="0" />
    </g>
    <g
       id="g128"
       transform="matrix(0.35277777,0,0,-0.35277777,47.034326,113.28056)">
      <path
         d="M 0,0 C -0.15,-0.047 -0.3,-0.092 -0.45,-0.137 -0.3,-0.092 -0.15,-0.048 0,0"
         style="fill:#afe94f;fill-opacity:1;fill-rule:nonzero;stroke:none"
         id="path130"
         inkscape:connector-curvature="0" />
    </g>
    <g
       id="g132"
       transform="matrix(0.35277777,0,0,-0.35277777,47.551786,113.10273)">
      <path
         d="M 0,0 C -0.147,-0.055 -0.295,-0.105 -0.442,-0.158 -0.295,-0.105 -0.147,-0.055 0,0"
         style="fill:#afe94f;fill-opacity:1;fill-rule:nonzero;stroke:none"
         id="path134"
         inkscape:connector-curvature="0" />
    </g>
    <g
       id="g136"
       transform="matrix(0.35277777,0,0,-0.35277777,48.565736,112.67005)">
      <path
         d="M 0,0 C -0.133,-0.065 -0.268,-0.124 -0.401,-0.187 -0.267,-0.124 -0.133,-0.065 0,0"
         style="fill:#afe94f;fill-opacity:1;fill-rule:nonzero;stroke:none"
         id="path138"
         inkscape:connector-curvature="0" />
    </g>
    <g
       id="g140"
       transform="matrix(0.35277777,0,0,-0.35277777,48.062606,112.89918)">
      <path
         d="M 0,0 C -0.142,-0.061 -0.285,-0.117 -0.427,-0.175 -0.285,-0.117 -0.142,-0.061 0,0"
         style="fill:#afe94f;fill-opacity:1;fill-rule:nonzero;stroke:none"
         id="path142"
         inkscape:connector-curvature="0" />
    </g>
    <g
       id="g144"
       transform="matrix(0.35277777,0,0,-0.35277777,38.136786,112.22509)">
      <path
         d="M 0,0 C -0.161,0.102 -0.318,0.211 -0.477,0.316 -0.318,0.211 -0.161,0.102 0,0"
         style="fill:#afe94f;fill-opacity:1;fill-rule:nonzero;stroke:none"
         id="path146"
         inkscape:connector-curvature="0" />
    </g>
    <g
       id="g148"
       transform="matrix(0.35277777,0,0,-0.35277777,37.713376,111.94054)">
      <path
         d="M 0,0 C -0.143,0.102 -0.282,0.21 -0.424,0.315 -0.282,0.21 -0.143,0.102 0,0"
         style="fill:#afe94f;fill-opacity:1;fill-rule:nonzero;stroke:none"
         id="path150"
         inkscape:connector-curvature="0" />
    </g>
    <g
       id="g152"
       transform="matrix(0.35277777,0,0,-0.35277777,39.470206,112.93548)">
      <path
         d="M 0,0 C -0.18,0.079 -0.357,0.163 -0.535,0.245 -0.357,0.163 -0.18,0.079 0,0"
         style="fill:#afe94f;fill-opacity:1;fill-rule:nonzero;stroke:none"
         id="path154"
         inkscape:connector-curvature="0" />
    </g>
    <g
       id="g156"
       transform="matrix(0.35277777,0,0,-0.35277777,38.571476,112.48576)">
      <path
         d="M 0,0 C -0.172,0.097 -0.341,0.201 -0.51,0.302 -0.341,0.201 -0.172,0.097 0,0"
         style="fill:#afe94f;fill-opacity:1;fill-rule:nonzero;stroke:none"
         id="path158"
         inkscape:connector-curvature="0" />
    </g>
    <path
       d="m 85.076866,65.525355 -3.53413,-3.836459 -7.06014,-3.217333 c -2.85539,-0.117475 -5.8219,0.898172 -8.16081,3.052586 l -32.60549,30.034089 c -2.39183,2.20345 -3.64983,5.154787 -3.71827,8.072966 0.0688,-2.917825 1.32679,-5.868457 3.71827,-8.071203 l 17.62266,-16.233775 2.06834,2.255309 15.18708,-13.870869 c 1.66547,-1.534231 3.37044,-2.382661 6.30344,-2.262364 2.93334,0.12065 3.46498,0.875242 4.73604,2.257072 l 3.40078,3.831167 c 1.32926,1.442507 1.91276,3.361618 1.76882,5.406318 -0.15134,2.112081 -1.16099,4.096457 -2.78236,5.590118 l -15.04067,13.847938 1.98825,2.167467 -0.17674,0.162983 15.20225,-14.004219 c 4.50074,-4.147608 4.98687,-10.945284 1.08268,-15.181791"
       style="fill:#afe94f;fill-opacity:1;fill-rule:nonzero;stroke:none;stroke-width:0.35277775"
       id="path162"
       inkscape:connector-curvature="0" />
    <g
       id="g164"
       transform="matrix(0.35277777,0,0,-0.35277777,39.015936,112.72233)">
      <path
         d="M 0,0 C -0.177,0.089 -0.351,0.182 -0.526,0.275 -0.351,0.182 -0.177,0.089 0,0"
         style="fill:#afe94f;fill-opacity:1;fill-rule:nonzero;stroke:none"
         id="path166"
         inkscape:connector-curvature="0" />
    </g>
    <g
       id="g168"
       transform="matrix(0.35277777,0,0,-0.35277777,39.932876,113.12495)">
      <path
         d="M 0,0 C -0.181,0.069 -0.36,0.142 -0.539,0.215 -0.36,0.142 -0.181,0.069 0,0"
         style="fill:#afe94f;fill-opacity:1;fill-rule:nonzero;stroke:none"
         id="path170"
         inkscape:connector-curvature="0" />
    </g>
    <g
       id="g172"
       transform="matrix(0.35277777,0,0,-0.35277777,37.302456,111.63217)">
      <path
         d="M 0,0 C -0.114,0.091 -0.225,0.188 -0.338,0.28 -0.225,0.188 -0.114,0.091 0,0"
         style="fill:#afe94f;fill-opacity:1;fill-rule:nonzero;stroke:none"
         id="path174"
         inkscape:connector-curvature="0" />
    </g>
    <g
       id="g176"
       transform="matrix(0.35277777,0,0,-0.35277777,36.905236,111.30028)">
      <path
         d="M 0,0 C -0.057,0.05 -0.111,0.104 -0.167,0.155 -0.111,0.104 -0.057,0.05 0,0"
         style="fill:#afe94f;fill-opacity:1;fill-rule:nonzero;stroke:none"
         id="path178"
         inkscape:connector-curvature="0" />
    </g>
    <g
       id="g180"
       transform="matrix(0.35277777,0,0,-0.35277777,47.911826,112.96098)">
      <path
         d="M 0,0 C -0.339,-0.139 -0.679,-0.275 -1.021,-0.402 -0.679,-0.275 -0.339,-0.139 0,0"
         style="fill:#afe94f;fill-opacity:1;fill-rule:nonzero;stroke:none"
         id="path182"
         inkscape:connector-curvature="0" />
    </g>
    <g
       id="g184"
       transform="matrix(0.35277777,0,0,-0.35277777,39.742626,113.04925)">
      <path
         d="M 0,0 C -0.259,0.105 -0.517,0.21 -0.772,0.323 -0.517,0.21 -0.259,0.105 0,0"
         style="fill:#afe94f;fill-opacity:1;fill-rule:nonzero;stroke:none"
         id="path186"
         inkscape:connector-curvature="0" />
    </g>
    <g
       id="g188"
       transform="matrix(0.35277777,0,0,-0.35277777,48.424236,112.73598)">
      <path
         d="M 0,0 C -0.34,-0.159 -0.681,-0.316 -1.025,-0.463 -0.681,-0.316 -0.34,-0.159 0,0"
         style="fill:#afe94f;fill-opacity:1;fill-rule:nonzero;stroke:none"
         id="path190"
         inkscape:connector-curvature="0" />
    </g>
    <g
       id="g192"
       transform="matrix(0.35277777,0,0,-0.35277777,40.213756,113.22652)">
      <path
         d="M 0,0 C -0.267,0.093 -0.532,0.187 -0.796,0.288 -0.532,0.187 -0.267,0.093 0,0"
         style="fill:#afe94f;fill-opacity:1;fill-rule:nonzero;stroke:none"
         id="path194"
         inkscape:connector-curvature="0" />
    </g>
    <g
       id="g196"
       transform="matrix(0.35277777,0,0,-0.35277777,47.395716,113.15829)">
      <path
         d="M 0,0 C -0.34,-0.121 -0.682,-0.238 -1.024,-0.347 -0.682,-0.238 -0.341,-0.121 0,0"
         style="fill:#afe94f;fill-opacity:1;fill-rule:nonzero;stroke:none"
         id="path198"
         inkscape:connector-curvature="0" />
    </g>
    <g
       id="g200"
       transform="matrix(0.35277777,0,0,-0.35277777,46.875476,113.32886)">
      <path
         d="M 0,0 C -0.342,-0.103 -0.685,-0.202 -1.029,-0.293 -0.685,-0.202 -0.342,-0.103 0,0"
         style="fill:#afe94f;fill-opacity:1;fill-rule:nonzero;stroke:none"
         id="path202"
         inkscape:connector-curvature="0" />
    </g>
    <g
       id="g204"
       transform="matrix(0.35277777,0,0,-0.35277777,37.183256,111.53336)">
      <path
         d="M 0,0 C -0.265,0.217 -0.53,0.433 -0.788,0.661 -0.53,0.433 -0.265,0.217 0,0"
         style="fill:#afe94f;fill-opacity:1;fill-rule:nonzero;stroke:none"
         id="path206"
         inkscape:connector-curvature="0" />
    </g>
    <g
       id="g208"
       transform="matrix(0.35277777,0,0,-0.35277777,41.178466,113.51012)">
      <path
         d="M 0,0 C -0.284,0.068 -0.567,0.141 -0.848,0.217 -0.567,0.141 -0.284,0.069 0,0"
         style="fill:#afe94f;fill-opacity:1;fill-rule:nonzero;stroke:none"
         id="path210"
         inkscape:connector-curvature="0" />
    </g>
    <g
       id="g212"
       transform="matrix(0.35277777,0,0,-0.35277777,49.942236,111.87997)">
      <path
         d="M 0,0 C -0.371,-0.248 -0.744,-0.49 -1.121,-0.721 -0.744,-0.49 -0.371,-0.248 0,0"
         style="fill:#afe94f;fill-opacity:1;fill-rule:nonzero;stroke:none"
         id="path214"
         inkscape:connector-curvature="0" />
    </g>
    <g
       id="g216"
       transform="matrix(0.35277777,0,0,-0.35277777,50.464776,111.51135)">
      <path
         d="M 0,0 C -0.414,-0.31 -0.832,-0.61 -1.256,-0.898 -0.832,-0.61 -0.414,-0.31 0,0"
         style="fill:#afe94f;fill-opacity:1;fill-rule:nonzero;stroke:none"
         id="path218"
         inkscape:connector-curvature="0" />
    </g>
    <g
       id="g220"
       transform="matrix(0.35277777,0,0,-0.35277777,40.693076,113.38026)">
      <path
         d="M 0,0 C -0.276,0.081 -0.55,0.165 -0.823,0.254 -0.55,0.164 -0.276,0.081 0,0"
         style="fill:#afe94f;fill-opacity:1;fill-rule:nonzero;stroke:none"
         id="path222"
         inkscape:connector-curvature="0" />
    </g>
    <g
       id="g224"
       transform="matrix(0.35277777,0,0,-0.35277777,49.435756,112.19937)">
      <path
         d="M 0,0 C -0.352,-0.21 -0.705,-0.416 -1.062,-0.611 -0.705,-0.416 -0.352,-0.21 0,0"
         style="fill:#afe94f;fill-opacity:1;fill-rule:nonzero;stroke:none"
         id="path226"
         inkscape:connector-curvature="0" />
    </g>
    <g
       id="g228"
       transform="matrix(0.35277777,0,0,-0.35277777,50.485416,111.49643)">
      <path
         d="M 0,0 C 0.878,0.661 1.733,1.37 2.56,2.132 L 51.892,47.58 2.56,2.136 C 1.733,1.374 0.878,0.662 0,0"
         style="fill:#afe94f;fill-opacity:1;fill-rule:nonzero;stroke:none"
         id="path230"
         inkscape:connector-curvature="0" />
    </g>
    <g
       id="g232"
       transform="matrix(0.35277777,0,0,-0.35277777,36.167756,110.57818)">
      <path
         d="m 0,0 -10.018,10.875 c -5.188,5.632 -7.642,12.857 -7.471,20.156 -0.172,-7.3 2.282,-14.527 7.471,-20.16 L 0,-0.004 C 0.615,-0.672 1.259,-1.297 1.923,-1.892 1.259,-1.297 0.615,-0.669 0,0"
         style="fill:#afe94f;fill-opacity:1;fill-rule:nonzero;stroke:none"
         id="path234"
         inkscape:connector-curvature="0" />
    </g>
    <g
       id="g236"
       transform="matrix(0.35277777,0,0,-0.35277777,48.931466,112.48293)">
      <path
         d="M 0,0 C -0.344,-0.182 -0.689,-0.362 -1.037,-0.53 -0.689,-0.361 -0.344,-0.182 0,0"
         style="fill:#afe94f;fill-opacity:1;fill-rule:nonzero;stroke:none"
         id="path238"
         inkscape:connector-curvature="0" />
    </g>
    <g
       id="g240"
       transform="matrix(0.35277777,0,0,-0.35277777,42.166316,113.69892)">
      <path
         d="M 0,0 C -0.302,0.043 -0.602,0.091 -0.902,0.142 -0.602,0.091 -0.302,0.043 0,0"
         style="fill:#afe94f;fill-opacity:1;fill-rule:nonzero;stroke:none"
         id="path242"
         inkscape:connector-curvature="0" />
    </g>
    <g
       id="g244"
       transform="matrix(0.35277777,0,0,-0.35277777,39.281406,112.84894)">
      <path
         d="M 0,0 C -0.252,0.117 -0.504,0.234 -0.753,0.359 -0.504,0.234 -0.252,0.117 0,0"
         style="fill:#afe94f;fill-opacity:1;fill-rule:nonzero;stroke:none"
         id="path246"
         inkscape:connector-curvature="0" />
    </g>
    <g
       id="g248"
       transform="matrix(0.35277777,0,0,-0.35277777,38.391376,112.37939)">
      <path
         d="M 0,0 C -0.242,0.144 -0.484,0.286 -0.722,0.437 -0.484,0.286 -0.242,0.144 0,0"
         style="fill:#afe94f;fill-opacity:1;fill-rule:nonzero;stroke:none"
         id="path250"
         inkscape:connector-curvature="0" />
    </g>
    <g
       id="g252"
       transform="matrix(0.35277777,0,0,-0.35277777,44.229636,113.79026)">
      <path
         d="M 0,0 C -0.351,-0.018 -0.701,-0.029 -1.052,-0.035 -0.701,-0.029 -0.351,-0.018 0,0"
         style="fill:#afe94f;fill-opacity:1;fill-rule:nonzero;stroke:none"
         id="path254"
         inkscape:connector-curvature="0" />
    </g>
    <g
       id="g256"
       transform="matrix(0.35277777,0,0,-0.35277777,46.350226,113.47343)">
      <path
         d="M 0,0 C -0.344,-0.086 -0.688,-0.167 -1.033,-0.241 -0.688,-0.167 -0.344,-0.086 0,0"
         style="fill:#afe94f;fill-opacity:1;fill-rule:nonzero;stroke:none"
         id="path258"
         inkscape:connector-curvature="0" />
    </g>
    <g
       id="g260"
       transform="matrix(0.35277777,0,0,-0.35277777,42.665666,113.7578)">
      <path
         d="M 0,0 C -0.308,0.029 -0.615,0.064 -0.921,0.102 -0.615,0.064 -0.308,0.029 0,0"
         style="fill:#afe94f;fill-opacity:1;fill-rule:nonzero;stroke:none"
         id="path262"
         inkscape:connector-curvature="0" />
    </g>
    <g
       id="g264"
       transform="matrix(0.35277777,0,0,-0.35277777,38.830346,112.62535)">
      <path
         d="M 0,0 C -0.246,0.13 -0.492,0.259 -0.734,0.396 -0.492,0.259 -0.246,0.13 0,0"
         style="fill:#afe94f;fill-opacity:1;fill-rule:nonzero;stroke:none"
         id="path266"
         inkscape:connector-curvature="0" />
    </g>
    <g
       id="g268"
       transform="matrix(0.35277777,0,0,-0.35277777,43.167286,113.79315)">
      <path
         d="M 0,0 C -0.314,0.015 -0.627,0.036 -0.939,0.06 -0.627,0.036 -0.314,0.015 0,0"
         style="fill:#afe94f;fill-opacity:1;fill-rule:nonzero;stroke:none"
         id="path270"
         inkscape:connector-curvature="0" />
    </g>
    <g
       id="g272"
       transform="matrix(0.35277777,0,0,-0.35277777,43.698956,113.80465)">
      <path
         d="M 0,0 C -0.354,-0.001 -0.708,0.006 -1.061,0.017 -0.708,0.006 -0.354,-0.001 0,0"
         style="fill:#afe94f;fill-opacity:1;fill-rule:nonzero;stroke:none"
         id="path274"
         inkscape:connector-curvature="0" />
    </g>
    <g
       id="g276"
       transform="matrix(0.35277777,0,0,-0.35277777,45.292106,113.68386)">
      <path
         d="M 0,0 C -0.347,-0.052 -0.694,-0.098 -1.042,-0.138 -0.694,-0.098 -0.347,-0.052 0,0"
         style="fill:#afe94f;fill-opacity:1;fill-rule:nonzero;stroke:none"
         id="path278"
         inkscape:connector-curvature="0" />
    </g>
    <g
       id="g280"
       transform="matrix(0.35277777,0,0,-0.35277777,41.670946,113.61655)">
      <path
         d="M 0,0 C -0.293,0.056 -0.586,0.116 -0.877,0.181 -0.586,0.116 -0.293,0.056 0,0"
         style="fill:#afe94f;fill-opacity:1;fill-rule:nonzero;stroke:none"
         id="path282"
         inkscape:connector-curvature="0" />
    </g>
    <g
       id="g284"
       transform="matrix(0.35277777,0,0,-0.35277777,37.563936,111.82952)">
      <path
         d="M 0,0 C -0.249,0.184 -0.498,0.366 -0.741,0.559 -0.498,0.366 -0.249,0.184 0,0"
         style="fill:#afe94f;fill-opacity:1;fill-rule:nonzero;stroke:none"
         id="path286"
         inkscape:connector-curvature="0" />
    </g>
    <g
       id="g288"
       transform="matrix(0.35277777,0,0,-0.35277777,45.822606,113.59161)">
      <path
         d="M 0,0 C -0.345,-0.069 -0.691,-0.132 -1.038,-0.189 -0.691,-0.132 -0.345,-0.069 0,0"
         style="fill:#afe94f;fill-opacity:1;fill-rule:nonzero;stroke:none"
         id="path290"
         inkscape:connector-curvature="0" />
    </g>
    <g
       id="g292"
       transform="matrix(0.35277777,0,0,-0.35277777,44.761486,113.74993)">
      <path
         d="M 0,0 C -0.349,-0.035 -0.699,-0.063 -1.049,-0.087 -0.699,-0.063 -0.35,-0.035 0,0"
         style="fill:#afe94f;fill-opacity:1;fill-rule:nonzero;stroke:none"
         id="path294"
         inkscape:connector-curvature="0" />
    </g>
    <g
       id="g296"
       transform="matrix(0.35277777,0,0,-0.35277777,37.968616,112.11343)">
      <path
         d="M 0,0 C -0.242,0.161 -0.485,0.321 -0.724,0.49 -0.485,0.321 -0.242,0.161 0,0"
         style="fill:#afe94f;fill-opacity:1;fill-rule:nonzero;stroke:none"
         id="path298"
         inkscape:connector-curvature="0" />
    </g>
    <g
       id="g300"
       transform="matrix(0.35277777,0,0,-0.35277777,66.980346,92.380809)">
      <path
         d="m 0,0 -49.836,-45.885 c -4.718,-4.353 -10.981,-6.699 -17.129,-6.447 -5.542,0.228 -10.591,2.509 -14.203,6.425 l -10.022,10.876 c -3.767,4.089 -5.622,9.537 -5.209,15.342 0.425,5.983 3.192,11.611 7.788,15.849 l 50.136,45.791 -5.863,6.393 -49.954,-46.017 c -6.779,-6.244 -10.345,-14.609 -10.54,-22.879 -0.17,-7.299 2.284,-14.525 7.471,-20.156 l 10.018,-10.875 c 0.616,-0.669 1.259,-1.297 1.923,-1.892 0.057,-0.051 0.111,-0.105 0.168,-0.155 0.258,-0.228 0.523,-0.444 0.788,-0.661 0.113,-0.092 0.223,-0.189 0.338,-0.28 0.243,-0.193 0.492,-0.375 0.741,-0.559 0.141,-0.105 0.28,-0.213 0.423,-0.315 0.238,-0.169 0.482,-0.329 0.724,-0.49 0.159,-0.106 0.316,-0.214 0.477,-0.317 0.238,-0.151 0.48,-0.293 0.721,-0.437 0.17,-0.101 0.339,-0.204 0.511,-0.301 0.242,-0.138 0.488,-0.267 0.734,-0.396 0.175,-0.093 0.349,-0.187 0.526,-0.275 0.249,-0.125 0.5,-0.242 0.752,-0.359 0.178,-0.083 0.356,-0.166 0.535,-0.245 0.256,-0.113 0.514,-0.218 0.773,-0.323 0.179,-0.072 0.358,-0.145 0.539,-0.214 0.264,-0.101 0.53,-0.196 0.796,-0.288 0.178,-0.062 0.356,-0.124 0.536,-0.183 0.273,-0.089 0.547,-0.172 0.823,-0.253 0.175,-0.052 0.351,-0.102 0.528,-0.151 0.281,-0.077 0.564,-0.149 0.848,-0.217 0.172,-0.042 0.345,-0.082 0.519,-0.121 0.291,-0.065 0.583,-0.125 0.877,-0.181 0.167,-0.032 0.334,-0.062 0.502,-0.091 0.3,-0.052 0.6,-0.1 0.902,-0.142 0.164,-0.024 0.329,-0.045 0.494,-0.065 0.307,-0.039 0.614,-0.073 0.921,-0.102 0.161,-0.015 0.322,-0.028 0.483,-0.04 0.313,-0.024 0.626,-0.046 0.939,-0.06 0.149,-0.007 0.297,-0.011 0.446,-0.016 0.353,-0.011 0.707,-0.018 1.061,-0.017 0.151,0 0.302,0.003 0.453,0.006 0.35,0.006 0.701,0.017 1.052,0.035 0.153,0.008 0.306,0.017 0.459,0.027 0.349,0.024 0.699,0.052 1.048,0.087 0.154,0.015 0.308,0.032 0.462,0.05 0.348,0.04 0.695,0.086 1.042,0.137 0.156,0.024 0.311,0.047 0.467,0.073 0.346,0.057 0.692,0.12 1.037,0.189 0.155,0.031 0.309,0.061 0.463,0.094 0.345,0.074 0.689,0.155 1.033,0.241 0.153,0.038 0.306,0.076 0.459,0.116 0.345,0.092 0.688,0.191 1.03,0.294 0.15,0.045 0.3,0.089 0.45,0.137 0.343,0.108 0.684,0.225 1.024,0.346 0.148,0.053 0.296,0.103 0.443,0.158 0.342,0.127 0.682,0.262 1.02,0.401 0.143,0.059 0.286,0.115 0.428,0.176 0.344,0.146 0.685,0.303 1.025,0.462 0.134,0.063 0.268,0.123 0.401,0.187 0.348,0.169 0.693,0.348 1.037,0.531 0.122,0.064 0.245,0.126 0.367,0.192 0.357,0.195 0.71,0.402 1.062,0.611 0.105,0.063 0.211,0.121 0.315,0.185 0.377,0.231 0.75,0.473 1.121,0.721 0.075,0.05 0.151,0.096 0.225,0.147 0.424,0.288 0.843,0.587 1.256,0.898 0.019,0.014 0.039,0.027 0.059,0.042 0.878,0.662 1.733,1.374 2.56,2.136 l 49.332,45.444 0.501,0.461 z"
         style="fill:#afe94f;fill-opacity:1;fill-rule:nonzero;stroke:none"
         id="path302"
         inkscape:connector-curvature="0" />
    </g>
    <g
       id="g304"
       transform="matrix(0.35277777,0,0,-0.35277777,32.973026,99.32679)">
      <path
         d="m 0,0 c -0.413,-5.804 1.441,-11.252 5.209,-15.342 l 10.022,-10.875 c 3.612,-3.917 8.661,-6.198 14.202,-6.425 6.149,-0.252 12.412,2.093 17.129,6.447 L 96.399,19.689 57.924,61.641 7.787,15.85 C 3.191,11.612 0.424,5.983 0,0"
         style="fill:#afe94f;fill-opacity:1;fill-rule:nonzero;stroke:none"
         id="path306"
         inkscape:connector-curvature="0" />
    </g>
    <g
       id="g308"
       transform="matrix(0.35277777,0,0,-0.35277777,118.15557,106.87137)">
      <path
         d="m 0,0 c 1.204,29.353 -21.615,54.125 -50.968,55.329 -12.197,0.5 -23.594,-3.159 -32.849,-9.7 l 71.459,-77.573 C -5.077,-23.261 -0.5,-12.197 0,0"
         style="fill:#afe94f;fill-opacity:1;fill-rule:nonzero;stroke:none"
         id="path310"
         inkscape:connector-curvature="0" />
    </g>
    <g
       id="g312"
       transform="matrix(0.35277777,0,0,-0.35277777,80.657866,104.76606)">
      <path
         d="m 0,0 c -1.204,-29.357 21.615,-54.12 50.964,-55.325 12.625,-0.517 24.4,3.418 33.818,10.393 L 13.128,32.849 C 5.404,24.034 0.518,12.625 0,0"
         style="fill:#afe94f;fill-opacity:1;fill-rule:nonzero;stroke:none"
         id="path314"
         inkscape:connector-curvature="0" />
    </g>
  </g>
</svg>
