<?xml version="1.0" encoding="UTF-8" standalone="no"?>
<!-- Created with Inkscape (http://www.inkscape.org/) -->

<svg
   xmlns:dc="http://purl.org/dc/elements/1.1/"
   xmlns:cc="http://creativecommons.org/ns#"
   xmlns:rdf="http://www.w3.org/1999/02/22-rdf-syntax-ns#"
   xmlns:svg="http://www.w3.org/2000/svg"
   xmlns="http://www.w3.org/2000/svg"
   xmlns:sodipodi="http://sodipodi.sourceforge.net/DTD/sodipodi-0.dtd"
   xmlns:inkscape="http://www.inkscape.org/namespaces/inkscape"
   width="84.061699mm"
   height="98.790474mm"
   viewBox="0 0 84.061699 98.790474"
   version="1.1"
   id="svg4182"
   inkscape:version="0.92.3 (unknown)"
   sodipodi:docname="twospoons.svg">
  <defs
     id="defs4176" />
  <sodipodi:namedview
     id="base"
     pagecolor="#ffffff"
     bordercolor="#666666"
     borderopacity="1.0"
     inkscape:pageopacity="0.0"
     inkscape:pageshadow="2"
     inkscape:zoom="0.35"
     inkscape:cx="213.14246"
     inkscape:cy="46.690665"
     inkscape:document-units="mm"
     inkscape:current-layer="layer1"
     showgrid="false"
     inkscape:window-width="1366"
     inkscape:window-height="711"
     inkscape:window-x="0"
     inkscape:window-y="0"
     inkscape:window-maximized="1" />
  <metadata
     id="metadata4179">
    <rdf:RDF>
      <cc:Work
         rdf:about="">
        <dc:format>image/svg+xml</dc:format>
        <dc:type
           rdf:resource="http://purl.org/dc/dcmitype/StillImage" />
        <dc:title></dc:title>
      </cc:Work>
    </rdf:RDF>
  </metadata>
  <g
     inkscape:label="Layer 1"
     inkscape:groupmode="layer"
     id="layer1"
     transform="translate(-49.439391,-62.396429)">
    <g
       id="g24"
       transform="matrix(0.35277777,0,0,-0.35277777,69.186127,111.22687)">
      <path
         d="m 0,0 c -22.753,9.375 -41.975,40.557 -41.975,68.091 0,31.058 25.299,56.326 56.395,56.326 V -4.568 C 5.703,-2.96 0,0 0,0 m 14.42,138.417 v 0 c -38.878,0 -70.395,-31.486 -70.395,-70.326 0,-25.606 13.707,-54.404 34.183,-71.066 5.104,-4.153 10.62,-7.564 16.458,-9.969 l -10.148,-96.881 c -0.34,-1.606 -0.519,-3.261 -0.519,-4.953 0,-14.824 13.62,-26.841 30.421,-26.841 16.801,0 30.421,12.017 30.421,26.841 0,1.692 -0.179,3.347 -0.518,4.953 l -10.149,96.881 c 5.838,2.405 11.355,5.816 16.458,9.969 20.476,16.662 34.183,45.46 34.183,71.066 0,38.84 -31.517,70.326 -70.395,70.326"
         style="fill:#a4ecef;fill-opacity:1;fill-rule:nonzero;stroke:none"
         id="path26"
         inkscape:connector-curvature="0" />
    </g>
    <g
       id="g28"
       transform="matrix(0.35277777,0,0,-0.35277777,103.58024,111.22687)">
      <path
         d="m 0,0 c -22.753,9.375 -41.975,40.557 -41.975,68.091 0,31.058 25.299,56.326 56.395,56.326 V -4.568 C 5.703,-2.96 0,0 0,0 m 14.42,138.417 v 0 c -38.878,0 -70.395,-31.486 -70.395,-70.326 0,-25.606 13.707,-54.404 34.183,-71.066 5.104,-4.153 10.62,-7.564 16.458,-9.969 l -10.148,-96.881 c -0.34,-1.606 -0.519,-3.261 -0.519,-4.953 0,-14.824 13.62,-26.841 30.421,-26.841 16.801,0 30.421,12.017 30.421,26.841 0,1.692 -0.179,3.347 -0.518,4.953 l -10.149,96.881 c 5.838,2.405 11.355,5.816 16.458,9.969 20.476,16.662 34.183,45.46 34.183,71.066 0,38.84 -31.517,70.326 -70.395,70.326"
         style="fill:#a4ecef;fill-opacity:1;fill-rule:nonzero;stroke:none"
         id="path30"
         inkscape:connector-curvature="0" />
    </g>
  </g>
</svg>
