<?xml version="1.0" encoding="UTF-8" standalone="no"?>
<!-- Created with Inkscape (http://www.inkscape.org/) -->

<svg
   xmlns:dc="http://purl.org/dc/elements/1.1/"
   xmlns:cc="http://creativecommons.org/ns#"
   xmlns:rdf="http://www.w3.org/1999/02/22-rdf-syntax-ns#"
   xmlns:svg="http://www.w3.org/2000/svg"
   xmlns="http://www.w3.org/2000/svg"
   xmlns:sodipodi="http://sodipodi.sourceforge.net/DTD/sodipodi-0.dtd"
   xmlns:inkscape="http://www.inkscape.org/namespaces/inkscape"
   width="61.524799mm"
   height="66.548798mm"
   viewBox="0 0 61.524799 66.548798"
   version="1.1"
   id="svg4813"
   inkscape:version="0.92.3 (unknown)"
   sodipodi:docname="wakeup.svg">
  <defs
     id="defs4807" />
  <sodipodi:namedview
     id="base"
     pagecolor="#ffffff"
     bordercolor="#666666"
     borderopacity="1.0"
     inkscape:pageopacity="0.0"
     inkscape:pageshadow="2"
     inkscape:zoom="0.35"
     inkscape:cx="301.98162"
     inkscape:cy="-174.23848"
     inkscape:document-units="mm"
     inkscape:current-layer="layer1"
     showgrid="false"
     inkscape:window-width="1366"
     inkscape:window-height="711"
     inkscape:window-x="0"
     inkscape:window-y="0"
     inkscape:window-maximized="1" />
  <metadata
     id="metadata4810">
    <rdf:RDF>
      <cc:Work
         rdf:about="">
        <dc:format>image/svg+xml</dc:format>
        <dc:type
           rdf:resource="http://purl.org/dc/dcmitype/StillImage" />
        <dc:title></dc:title>
      </cc:Work>
    </rdf:RDF>
  </metadata>
  <g
     inkscape:label="Layer 1"
     inkscape:groupmode="layer"
     id="layer1"
     transform="translate(-25.93403,-36.183933)">
    <g
       id="g386"
       transform="matrix(0.35277777,0,0,-0.35277777,35.655659,37.019267)">
      <path
         d="m 0,0 -0.001,0.001 c -3.241,3.191 -8.455,3.15 -11.645,-0.091 l -13.545,-13.756 c -3.19,-3.241 -3.15,-8.455 0.091,-11.646 l 0.001,-10e-4 c 3.241,-3.19 8.454,-3.15 11.645,0.091 L 0.091,-11.645 C 3.281,-8.404 3.241,-3.191 0,0 m 144.477,-13.846 -13.544,13.757 c -3.191,3.24 -8.405,3.281 -11.645,0.09 L 119.287,0 c -3.241,-3.19 -3.281,-8.404 -0.09,-11.645 L 132.741,-25.4 c 3.191,-3.241 8.404,-3.281 11.644,-0.091 3.242,3.19 3.283,8.405 0.092,11.645 M 59.644,-40.785 h -0.002 c -4.547,0 -8.234,-3.687 -8.234,-8.235 v -41.225 l 21.764,-17.341 c 3.557,-2.835 8.738,-2.249 11.572,1.309 l 0.001,0.001 c 2.833,3.557 2.247,8.737 -1.309,11.571 l -15.558,12.396 v 33.289 c 0.001,4.548 -3.686,8.235 -8.234,8.235 m 5.65,-114.679 c -42.719,-3.398 -78.246,32.138 -74.838,74.856 2.683,33.617 29.919,60.846 63.537,63.521 42.719,3.398 78.246,-32.139 74.837,-74.856 -2.682,-33.617 -29.919,-60.847 -63.536,-63.521 m 80.234,69.188 c 0,49.399 -41.922,89.191 -92.058,85.668 -42.106,-2.96 -76.273,-36.932 -79.459,-79.022 -2.293,-30.288 11.242,-57.601 33.17,-74.575 l -13.739,-19.009 c -2.664,-3.686 -1.836,-8.833 1.85,-11.497 l 0.003,-0.002 c 3.686,-2.664 8.834,-1.836 11.498,1.85 l 14.346,19.849 c 11.591,-5.84 24.662,-9.151 38.502,-9.151 13.84,0 26.914,3.311 38.502,9.151 l 14.346,-19.849 c 2.664,-3.686 7.812,-4.514 11.498,-1.85 l 0.003,0.002 c 3.686,2.664 4.514,7.811 1.85,11.497 l -13.739,19.009 c 20.316,15.723 33.427,40.317 33.427,67.929"
         style="fill:#afe94f;fill-opacity:1;fill-rule:nonzero;stroke:none"
         id="path388"
         inkscape:connector-curvature="0" />
    </g>
  </g>
</svg>
