<?xml version="1.0" encoding="UTF-8" standalone="no"?>
<!-- Created with Inkscape (http://www.inkscape.org/) -->

<svg
   xmlns:dc="http://purl.org/dc/elements/1.1/"
   xmlns:cc="http://creativecommons.org/ns#"
   xmlns:rdf="http://www.w3.org/1999/02/22-rdf-syntax-ns#"
   xmlns:svg="http://www.w3.org/2000/svg"
   xmlns="http://www.w3.org/2000/svg"
   xmlns:sodipodi="http://sodipodi.sourceforge.net/DTD/sodipodi-0.dtd"
   xmlns:inkscape="http://www.inkscape.org/namespaces/inkscape"
   width="63.876789mm"
   height="50.810585mm"
   viewBox="0 0 63.876789 50.810585"
   version="1.1"
   id="svg5175"
   inkscape:version="0.92.3 (unknown)"
   sodipodi:docname="work.svg">
  <defs
     id="defs5169" />
  <sodipodi:namedview
     id="base"
     pagecolor="#ffffff"
     bordercolor="#666666"
     borderopacity="1.0"
     inkscape:pageopacity="0.0"
     inkscape:pageshadow="2"
     inkscape:zoom="0.35"
     inkscape:cx="123.56918"
     inkscape:cy="44.591424"
     inkscape:document-units="mm"
     inkscape:current-layer="layer1"
     showgrid="false"
     inkscape:window-width="1366"
     inkscape:window-height="711"
     inkscape:window-x="0"
     inkscape:window-y="0"
     inkscape:window-maximized="1" />
  <metadata
     id="metadata5172">
    <rdf:RDF>
      <cc:Work
         rdf:about="">
        <dc:format>image/svg+xml</dc:format>
        <dc:type
           rdf:resource="http://purl.org/dc/dcmitype/StillImage" />
        <dc:title></dc:title>
      </cc:Work>
    </rdf:RDF>
  </metadata>
  <g
     inkscape:label="Layer 1"
     inkscape:groupmode="layer"
     id="layer1"
     transform="translate(-73.138988,-109.82089)">
    <g
       id="g378"
       transform="matrix(0.35277777,0,0,-0.35277777,134.11218,157.72812)">
      <path
         d="m 0,0 h -164.606 v 58.065 c 5.403,-5.555 12.825,-8.688 20.575,-8.683 h 47.325 v -4.115 c 0.02,-6.81 5.535,-12.326 12.345,-12.346 h 4.115 c 6.81,0.02 12.326,5.536 12.346,12.346 v 4.115 h 47.324 C -12.826,49.377 -5.404,52.51 0,58.065 Z m -88.476,61.727 c 0.007,2.27 1.845,4.109 4.115,4.116 h 4.115 c 2.27,-0.007 4.109,-1.846 4.116,-4.116 v -16.46 c -0.007,-2.27 -1.846,-4.109 -4.116,-4.115 h -4.115 c -2.27,0.006 -4.108,1.845 -4.115,4.115 z m -76.13,41.07 c 0,0.123 0.041,0.247 0.041,0.37 0.035,0.176 0.049,0.356 0.041,0.535 0.127,0.523 0.335,1.023 0.617,1.481 0.082,0.124 0.205,0.247 0.288,0.371 l 0.124,0.123 0.123,0.124 c 0.157,0.159 0.321,0.31 0.493,0.452 0.041,0 0.083,0.042 0.124,0.083 0.247,0.123 0.453,0.247 0.658,0.329 0.208,0.111 0.429,0.194 0.659,0.247 h 0.123 c 0.139,-0.007 0.278,0.007 0.412,0.041 0.166,-0.007 0.332,0.007 0.494,0.041 H -4.198 c 0.124,0 0.248,-0.041 0.371,-0.041 0.176,-0.036 0.356,-0.049 0.535,-0.041 0.523,-0.127 1.023,-0.336 1.482,-0.617 0.123,-0.083 0.246,-0.206 0.37,-0.288 l 0.123,-0.124 0.124,-0.123 c 0.159,-0.157 0.31,-0.322 0.453,-0.494 0,-0.041 0.041,-0.083 0.082,-0.124 0.123,-0.247 0.247,-0.452 0.329,-0.658 0.111,-0.208 0.194,-0.429 0.247,-0.659 v -0.123 c -0.007,-0.138 0.007,-0.277 0.041,-0.411 -0.007,-0.166 0.007,-0.332 0.041,-0.494 L 0,78.188 C -0.004,66.826 -9.214,57.616 -20.576,57.612 H -67.9 v 4.115 c -0.02,6.81 -5.536,12.326 -12.346,12.346 h -4.115 c -6.81,-0.02 -12.325,-5.536 -12.345,-12.346 v -4.115 h -47.325 c -11.362,0.004 -20.571,9.214 -20.575,20.576 z m 61.727,20.658 c 0.007,2.27 1.845,4.108 4.115,4.115 h 32.921 c 2.27,-0.007 4.109,-1.845 4.116,-4.115 v -8.231 h -41.152 z M 8.189,103.537 c -10e-4,0.29 -0.028,0.58 -0.082,0.865 0.002,0.265 -0.039,0.53 -0.124,0.781 -0.071,0.39 -0.167,0.775 -0.287,1.153 -0.336,1.195 -0.849,2.332 -1.523,3.374 -0.086,0.144 -0.183,0.281 -0.288,0.412 -0.18,0.243 -0.372,0.476 -0.576,0.699 -0.452,0.534 -0.948,1.03 -1.482,1.482 -0.247,0.205 -0.452,0.411 -0.74,0.617 l -0.371,0.247 c -1.042,0.674 -2.179,1.187 -3.374,1.522 -0.378,0.121 -0.762,0.217 -1.152,0.289 -0.252,0.084 -0.516,0.125 -0.782,0.123 -0.285,0.054 -0.575,0.081 -0.865,0.082 -0.218,0.031 -0.438,0.045 -0.658,0.041 h -49.382 v 8.231 c 0.009,6.809 -5.503,12.336 -12.313,12.345 h -0.033 -32.921 c -6.809,0.009 -12.336,-5.503 -12.345,-12.312 v -0.033 -8.231 h -49.382 c -0.22,0.004 -0.44,-0.01 -0.658,-0.041 -0.29,-0.001 -0.58,-0.028 -0.865,-0.082 -0.266,0.002 -0.53,-0.039 -0.782,-0.123 -0.39,-0.072 -0.775,-0.168 -1.152,-0.289 -1.195,-0.335 -2.332,-0.848 -3.374,-1.522 -0.144,-0.086 -0.282,-0.183 -0.412,-0.288 -0.243,-0.18 -0.476,-0.372 -0.699,-0.576 -0.534,-0.452 -1.03,-0.948 -1.482,-1.482 -0.206,-0.247 -0.412,-0.452 -0.617,-0.74 l -0.247,-0.371 c -0.674,-1.042 -1.187,-2.179 -1.523,-3.374 -0.12,-0.378 -0.216,-0.763 -0.288,-1.153 -0.084,-0.251 -0.126,-0.516 -0.123,-0.781 -0.054,-0.285 -0.082,-0.575 -0.082,-0.865 -0.031,-0.218 -0.045,-0.438 -0.042,-0.658 V -4.115 c 0.007,-2.27 1.845,-4.109 4.115,-4.115 H 4.115 c 2.27,0.006 4.109,1.845 4.115,4.115 v 106.994 c 0.004,0.22 -0.01,0.44 -0.041,0.658"
         style="fill:#169bd5;fill-opacity:1;fill-rule:nonzero;stroke:none"
         id="path380"
         inkscape:connector-curvature="0" />
    </g>
  </g>
</svg>
